<?xml version="1.0" encoding="UTF-8" standalone="no"?>
<!DOCTYPE svg PUBLIC "-//W3C//DTD SVG 1.1//EN"
 "http://www.w3.org/Graphics/SVG/1.1/DTD/svg11.dtd">
<!-- Generated by graphviz version 2.40.1 (20161225.0304)
 -->
<!-- Title: pgmodeler Pages: 1 -->
<svg width="447pt" height="1124pt"
 viewBox="0.00 0.00 446.96 1124.00" xmlns="http://www.w3.org/2000/svg" xmlns:xlink="http://www.w3.org/1999/xlink">
<g id="graph0" class="graph" transform="scale(1 1) rotate(0) translate(4 1120)">
<title>pgmodeler</title>
<polygon fill="#ffffff" stroke="transparent" points="-4,4 -4,-1120 442.9642,-1120 442.9642,4 -4,4"/>
<!-- databases/pgmodeler -->
<g id="node1" class="node">
<title>databases/pgmodeler</title>
<ellipse fill="#e1e1e1" stroke="#000000" cx="85.1424" cy="-558" rx="85.2851" ry="18"/>
<text text-anchor="middle" x="85.1424" y="-554.3" font-family="Times,serif" font-size="14.00" fill="#737373">databases/pgmodeler</text>
</g>
<!-- devel/pkgconf -->
<g id="node2" class="node">
<title>devel/pkgconf</title>
<ellipse fill="#e1e1e1" stroke="#000000" cx="322.6246" cy="-1098" rx="61.1893" ry="18"/>
<text text-anchor="middle" x="322.6246" y="-1094.3" font-family="Times,serif" font-size="14.00" fill="#737373">devel/pkgconf</text>
</g>
<!-- databases/pgmodeler&#45;&gt;devel/pkgconf -->
<g id="edge1" class="edge">
<title>databases/pgmodeler&#45;&gt;devel/pkgconf</title>
<path fill="none" stroke="#009999" d="M86.888,-576.097C95.2111,-658.6383 133.5094,-998.5045 206.2849,-1071 218.5033,-1083.1714 235.0633,-1090.2839 251.8538,-1094.34"/>
<polygon fill="#009999" stroke="#009999" points="251.2329,-1097.7856 261.7354,-1096.3901 252.6549,-1090.9316 251.2329,-1097.7856"/>
</g>
<!-- devel/gmake -->
<g id="node3" class="node">
<title>devel/gmake</title>
<ellipse fill="#e1e1e1" stroke="#000000" cx="322.6246" cy="-1044" rx="55.7903" ry="18"/>
<text text-anchor="middle" x="322.6246" y="-1040.3" font-family="Times,serif" font-size="14.00" fill="#737373">devel/gmake</text>
</g>
<!-- databases/pgmodeler&#45;&gt;devel/gmake -->
<g id="edge2" class="edge">
<title>databases/pgmodeler&#45;&gt;devel/gmake</title>
<path fill="none" stroke="#009999" d="M87.4427,-576.2426C97.5526,-653.5573 140.4865,-953.1466 206.2849,-1017 219.8439,-1030.1582 238.4905,-1037.37 256.8849,-1041.2015"/>
<polygon fill="#009999" stroke="#009999" points="256.289,-1044.6503 266.7472,-1042.9547 257.5142,-1037.7584 256.289,-1044.6503"/>
</g>
<!-- graphics/mesa&#45;libs -->
<g id="node4" class="node">
<title>graphics/mesa&#45;libs</title>
<ellipse fill="#e1e1e1" stroke="#000000" cx="322.6246" cy="-990" rx="77.1866" ry="18"/>
<text text-anchor="middle" x="322.6246" y="-986.3" font-family="Times,serif" font-size="14.00" fill="#737373">graphics/mesa&#45;libs</text>
</g>
<!-- databases/pgmodeler&#45;&gt;graphics/mesa&#45;libs -->
<g id="edge3" class="edge">
<title>databases/pgmodeler&#45;&gt;graphics/mesa&#45;libs</title>
<path fill="none" stroke="#009999" d="M88.0827,-576.0086C100.0541,-647.1725 147.3081,-907.6045 206.2849,-963 215.4078,-971.5689 226.6968,-977.598 238.6231,-981.8086"/>
<polygon fill="#009999" stroke="#009999" points="237.7073,-985.1889 248.2953,-984.8093 239.7815,-978.5033 237.7073,-985.1889"/>
</g>
<!-- x11/glproto -->
<g id="node5" class="node">
<title>x11/glproto</title>
<ellipse fill="#e1e1e1" stroke="#000000" cx="322.6246" cy="-936" rx="51.9908" ry="18"/>
<text text-anchor="middle" x="322.6246" y="-932.3" font-family="Times,serif" font-size="14.00" fill="#737373">x11/glproto</text>
</g>
<!-- databases/pgmodeler&#45;&gt;x11/glproto -->
<g id="edge4" class="edge">
<title>databases/pgmodeler&#45;&gt;x11/glproto</title>
<path fill="none" stroke="#009999" d="M89.0038,-576.2446C103.1727,-641.5226 154.1964,-862.0792 206.2849,-909 221.1095,-922.3538 241.2269,-929.4835 260.5637,-933.1813"/>
<polygon fill="#009999" stroke="#009999" points="260.1387,-936.6582 270.5723,-934.817 261.2678,-929.7499 260.1387,-936.6582"/>
</g>
<!-- x11/dri2proto -->
<g id="node6" class="node">
<title>x11/dri2proto</title>
<ellipse fill="#e1e1e1" stroke="#000000" cx="322.6246" cy="-882" rx="60.3893" ry="18"/>
<text text-anchor="middle" x="322.6246" y="-878.3" font-family="Times,serif" font-size="14.00" fill="#737373">x11/dri2proto</text>
</g>
<!-- databases/pgmodeler&#45;&gt;x11/dri2proto -->
<g id="edge5" class="edge">
<title>databases/pgmodeler&#45;&gt;x11/dri2proto</title>
<path fill="none" stroke="#009999" d="M86.8923,-576.3473C92.8972,-628.6056 117.491,-779.3289 206.2849,-855 219.4111,-866.1863 236.289,-872.9539 253.0951,-876.9931"/>
<polygon fill="#009999" stroke="#009999" points="252.4464,-880.4332 262.953,-879.0689 253.8888,-873.5834 252.4464,-880.4332"/>
</g>
<!-- x11/dri3proto -->
<g id="node7" class="node">
<title>x11/dri3proto</title>
<ellipse fill="#e1e1e1" stroke="#000000" cx="322.6246" cy="-828" rx="60.3893" ry="18"/>
<text text-anchor="middle" x="322.6246" y="-824.3" font-family="Times,serif" font-size="14.00" fill="#737373">x11/dri3proto</text>
</g>
<!-- databases/pgmodeler&#45;&gt;x11/dri3proto -->
<g id="edge6" class="edge">
<title>databases/pgmodeler&#45;&gt;x11/dri3proto</title>
<path fill="none" stroke="#009999" d="M88.6909,-576.2947C98.5358,-621.905 130.616,-741.2743 206.2849,-801 219.7542,-811.6314 236.6732,-818.2108 253.4037,-822.2469"/>
<polygon fill="#009999" stroke="#009999" points="252.6946,-825.6743 263.2051,-824.3408 254.1571,-818.8288 252.6946,-825.6743"/>
</g>
<!-- x11/libX11 -->
<g id="node8" class="node">
<title>x11/libX11</title>
<ellipse fill="#e1e1e1" stroke="#000000" cx="322.6246" cy="-774" rx="50.0912" ry="18"/>
<text text-anchor="middle" x="322.6246" y="-770.3" font-family="Times,serif" font-size="14.00" fill="#737373">x11/libX11</text>
</g>
<!-- databases/pgmodeler&#45;&gt;x11/libX11 -->
<g id="edge7" class="edge">
<title>databases/pgmodeler&#45;&gt;x11/libX11</title>
<path fill="none" stroke="#009999" d="M91.376,-576.1461C105.4368,-614.2289 143.3887,-702.6256 206.2849,-747 222.8044,-758.6549 243.6171,-765.3484 263.0562,-769.1692"/>
<polygon fill="#009999" stroke="#009999" points="262.6135,-772.6448 273.0664,-770.9164 263.8171,-765.749 262.6135,-772.6448"/>
</g>
<!-- x11/libXext -->
<g id="node9" class="node">
<title>x11/libXext</title>
<ellipse fill="#e1e1e1" stroke="#000000" cx="322.6246" cy="-720" rx="52.7911" ry="18"/>
<text text-anchor="middle" x="322.6246" y="-716.3" font-family="Times,serif" font-size="14.00" fill="#737373">x11/libXext</text>
</g>
<!-- databases/pgmodeler&#45;&gt;x11/libXext -->
<g id="edge8" class="edge">
<title>databases/pgmodeler&#45;&gt;x11/libXext</title>
<path fill="none" stroke="#009999" d="M96.0512,-576.077C114.7583,-605.438 155.8596,-663.2008 206.2849,-693 223.0049,-702.8808 243.0642,-709.1457 261.7809,-713.1179"/>
<polygon fill="#009999" stroke="#009999" points="261.2315,-716.5765 271.7151,-715.0451 262.5647,-709.7046 261.2315,-716.5765"/>
</g>
<!-- devel/qt5&#45;buildtools -->
<g id="node10" class="node">
<title>devel/qt5&#45;buildtools</title>
<ellipse fill="#e1e1e1" stroke="#000000" cx="322.6246" cy="-666" rx="82.5854" ry="18"/>
<text text-anchor="middle" x="322.6246" y="-662.3" font-family="Times,serif" font-size="14.00" fill="#737373">devel/qt5&#45;buildtools</text>
</g>
<!-- databases/pgmodeler&#45;&gt;devel/qt5&#45;buildtools -->
<g id="edge9" class="edge">
<title>databases/pgmodeler&#45;&gt;devel/qt5&#45;buildtools</title>
<path fill="none" stroke="#009999" d="M106.082,-575.4756C129.202,-593.9056 168.2104,-622.5103 206.2849,-639 218.9928,-644.5037 232.9886,-648.9733 246.7354,-652.574"/>
<polygon fill="#009999" stroke="#009999" points="246.1302,-656.03 256.6791,-655.0445 247.8182,-649.2365 246.1302,-656.03"/>
</g>
<!-- devel/qt5&#45;qmake -->
<g id="node11" class="node">
<title>devel/qt5&#45;qmake</title>
<ellipse fill="#e1e1e1" stroke="#000000" cx="322.6246" cy="-612" rx="70.6878" ry="18"/>
<text text-anchor="middle" x="322.6246" y="-608.3" font-family="Times,serif" font-size="14.00" fill="#737373">devel/qt5&#45;qmake</text>
</g>
<!-- databases/pgmodeler&#45;&gt;devel/qt5&#45;qmake -->
<g id="edge10" class="edge">
<title>databases/pgmodeler&#45;&gt;devel/qt5&#45;qmake</title>
<path fill="none" stroke="#009999" d="M143.2371,-571.2099C178.5072,-579.2298 223.5356,-589.4686 259.6552,-597.6817"/>
<polygon fill="#009999" stroke="#009999" points="259.0639,-601.1365 269.5911,-599.941 260.616,-594.3107 259.0639,-601.1365"/>
</g>
<!-- devel/qt5&#45;uitools -->
<g id="node12" class="node">
<title>devel/qt5&#45;uitools</title>
<ellipse fill="#e1e1e1" stroke="#000000" cx="322.6246" cy="-558" rx="71.4873" ry="18"/>
<text text-anchor="middle" x="322.6246" y="-554.3" font-family="Times,serif" font-size="14.00" fill="#737373">devel/qt5&#45;uitools</text>
</g>
<!-- databases/pgmodeler&#45;&gt;devel/qt5&#45;uitools -->
<g id="edge11" class="edge">
<title>databases/pgmodeler&#45;&gt;devel/qt5&#45;uitools</title>
<path fill="none" stroke="#009999" d="M170.5434,-558C193.3758,-558 217.998,-558 240.6416,-558"/>
<polygon fill="#009999" stroke="#009999" points="240.8927,-561.5001 250.8927,-558 240.8926,-554.5001 240.8927,-561.5001"/>
</g>
<!-- databases/postgresql95&#45;client -->
<g id="node13" class="node">
<title>databases/postgresql95&#45;client</title>
<ellipse fill="#e1e1e1" stroke="#000000" cx="322.6246" cy="-504" rx="116.1796" ry="18"/>
<text text-anchor="middle" x="322.6246" y="-500.3" font-family="Times,serif" font-size="14.00" fill="#737373">databases/postgresql95&#45;client</text>
</g>
<!-- databases/pgmodeler&#45;&gt;databases/postgresql95&#45;client -->
<g id="edge12" class="edge">
<title>databases/pgmodeler&#45;&gt;databases/postgresql95&#45;client</title>
<path fill="none" stroke="#009999" d="M143.2371,-544.7901C174.607,-537.657 213.6965,-528.7687 247.3715,-521.1115"/>
<polygon fill="#009999" stroke="#009999" points="248.1979,-524.513 257.173,-518.8828 246.6458,-517.6872 248.1979,-524.513"/>
</g>
<!-- textproc/libxml2 -->
<g id="node14" class="node">
<title>textproc/libxml2</title>
<ellipse fill="#e1e1e1" stroke="#000000" cx="322.6246" cy="-450" rx="71.4873" ry="18"/>
<text text-anchor="middle" x="322.6246" y="-446.3" font-family="Times,serif" font-size="14.00" fill="#737373">textproc/libxml2</text>
</g>
<!-- databases/pgmodeler&#45;&gt;textproc/libxml2 -->
<g id="edge13" class="edge">
<title>databases/pgmodeler&#45;&gt;textproc/libxml2</title>
<path fill="none" stroke="#009999" d="M106.082,-540.5244C129.202,-522.0944 168.2104,-493.4897 206.2849,-477 220.6443,-470.7811 236.6481,-465.8824 252.0788,-462.0659"/>
<polygon fill="#009999" stroke="#009999" points="253.1773,-465.4033 262.1133,-459.7113 251.5781,-458.5884 253.1773,-465.4033"/>
</g>
<!-- devel/qt5&#45;core -->
<g id="node15" class="node">
<title>devel/qt5&#45;core</title>
<ellipse fill="#e1e1e1" stroke="#000000" cx="322.6246" cy="-396" rx="62.2891" ry="18"/>
<text text-anchor="middle" x="322.6246" y="-392.3" font-family="Times,serif" font-size="14.00" fill="#737373">devel/qt5&#45;core</text>
</g>
<!-- databases/pgmodeler&#45;&gt;devel/qt5&#45;core -->
<g id="edge14" class="edge">
<title>databases/pgmodeler&#45;&gt;devel/qt5&#45;core</title>
<path fill="none" stroke="#009999" d="M96.0512,-539.923C114.7583,-510.562 155.8596,-452.7992 206.2849,-423 220.6979,-414.4825 237.5923,-408.652 253.969,-404.6608"/>
<polygon fill="#009999" stroke="#009999" points="255.0748,-408.0002 264.0722,-402.4058 253.5499,-401.1683 255.0748,-408.0002"/>
</g>
<!-- x11&#45;toolkits/qt5&#45;gui -->
<g id="node16" class="node">
<title>x11&#45;toolkits/qt5&#45;gui</title>
<ellipse fill="#e1e1e1" stroke="#000000" cx="322.6246" cy="-342" rx="81.7856" ry="18"/>
<text text-anchor="middle" x="322.6246" y="-338.3" font-family="Times,serif" font-size="14.00" fill="#737373">x11&#45;toolkits/qt5&#45;gui</text>
</g>
<!-- databases/pgmodeler&#45;&gt;x11&#45;toolkits/qt5&#45;gui -->
<g id="edge15" class="edge">
<title>databases/pgmodeler&#45;&gt;x11&#45;toolkits/qt5&#45;gui</title>
<path fill="none" stroke="#009999" d="M91.376,-539.8539C105.4368,-501.7711 143.3887,-413.3744 206.2849,-369 216.1459,-362.0429 227.5367,-356.8536 239.2519,-352.9879"/>
<polygon fill="#009999" stroke="#009999" points="240.5576,-356.251 249.1426,-350.0422 238.5595,-349.5422 240.5576,-356.251"/>
</g>
<!-- net/qt5&#45;network -->
<g id="node17" class="node">
<title>net/qt5&#45;network</title>
<ellipse fill="#e1e1e1" stroke="#000000" cx="322.6246" cy="-288" rx="69.5877" ry="18"/>
<text text-anchor="middle" x="322.6246" y="-284.3" font-family="Times,serif" font-size="14.00" fill="#737373">net/qt5&#45;network</text>
</g>
<!-- databases/pgmodeler&#45;&gt;net/qt5&#45;network -->
<g id="edge16" class="edge">
<title>databases/pgmodeler&#45;&gt;net/qt5&#45;network</title>
<path fill="none" stroke="#009999" d="M88.6909,-539.7053C98.5358,-494.095 130.616,-374.7257 206.2849,-315 217.7897,-305.9192 231.8113,-299.7946 246.0825,-295.6861"/>
<polygon fill="#009999" stroke="#009999" points="247.1558,-299.0243 255.9746,-293.1523 245.4188,-292.2432 247.1558,-299.0243"/>
</g>
<!-- print/qt5&#45;printsupport -->
<g id="node18" class="node">
<title>print/qt5&#45;printsupport</title>
<ellipse fill="#e1e1e1" stroke="#000000" cx="322.6246" cy="-234" rx="90.9839" ry="18"/>
<text text-anchor="middle" x="322.6246" y="-230.3" font-family="Times,serif" font-size="14.00" fill="#737373">print/qt5&#45;printsupport</text>
</g>
<!-- databases/pgmodeler&#45;&gt;print/qt5&#45;printsupport -->
<g id="edge17" class="edge">
<title>databases/pgmodeler&#45;&gt;print/qt5&#45;printsupport</title>
<path fill="none" stroke="#009999" d="M86.8923,-539.6527C92.8972,-487.3944 117.491,-336.6711 206.2849,-261 213.8599,-254.5445 222.6844,-249.5606 232.0234,-245.7233"/>
<polygon fill="#009999" stroke="#009999" points="233.3166,-248.9772 241.5068,-242.2563 230.913,-242.4028 233.3166,-248.9772"/>
</g>
<!-- databases/qt5&#45;sql -->
<g id="node19" class="node">
<title>databases/qt5&#45;sql</title>
<ellipse fill="#e1e1e1" stroke="#000000" cx="322.6246" cy="-180" rx="72.2875" ry="18"/>
<text text-anchor="middle" x="322.6246" y="-176.3" font-family="Times,serif" font-size="14.00" fill="#737373">databases/qt5&#45;sql</text>
</g>
<!-- databases/pgmodeler&#45;&gt;databases/qt5&#45;sql -->
<g id="edge18" class="edge">
<title>databases/pgmodeler&#45;&gt;databases/qt5&#45;sql</title>
<path fill="none" stroke="#009999" d="M89.0038,-539.7554C103.1727,-474.4774 154.1964,-253.9208 206.2849,-207 216.5743,-197.7314 229.4136,-191.4612 242.772,-187.2559"/>
<polygon fill="#009999" stroke="#009999" points="243.8582,-190.5869 252.5616,-184.5453 241.9902,-183.8407 243.8582,-190.5869"/>
</g>
<!-- graphics/qt5&#45;svg -->
<g id="node20" class="node">
<title>graphics/qt5&#45;svg</title>
<ellipse fill="#e1e1e1" stroke="#000000" cx="322.6246" cy="-126" rx="69.5877" ry="18"/>
<text text-anchor="middle" x="322.6246" y="-122.3" font-family="Times,serif" font-size="14.00" fill="#737373">graphics/qt5&#45;svg</text>
</g>
<!-- databases/pgmodeler&#45;&gt;graphics/qt5&#45;svg -->
<g id="edge19" class="edge">
<title>databases/pgmodeler&#45;&gt;graphics/qt5&#45;svg</title>
<path fill="none" stroke="#009999" d="M88.0827,-539.9914C100.0541,-468.8275 147.3081,-208.3955 206.2849,-153 216.9067,-143.0232 230.4649,-136.4894 244.5467,-132.26"/>
<polygon fill="#009999" stroke="#009999" points="245.5662,-135.6111 254.3495,-129.6862 243.7885,-128.8405 245.5662,-135.6111"/>
</g>
<!-- devel/qt5&#45;testlib -->
<g id="node21" class="node">
<title>devel/qt5&#45;testlib</title>
<ellipse fill="#e1e1e1" stroke="#000000" cx="322.6246" cy="-72" rx="69.5877" ry="18"/>
<text text-anchor="middle" x="322.6246" y="-68.3" font-family="Times,serif" font-size="14.00" fill="#737373">devel/qt5&#45;testlib</text>
</g>
<!-- databases/pgmodeler&#45;&gt;devel/qt5&#45;testlib -->
<g id="edge20" class="edge">
<title>databases/pgmodeler&#45;&gt;devel/qt5&#45;testlib</title>
<path fill="none" stroke="#009999" d="M87.4427,-539.7574C97.5526,-462.4427 140.4865,-162.8534 206.2849,-99 216.7427,-88.8514 230.2269,-82.2401 244.2876,-77.9887"/>
<polygon fill="#009999" stroke="#009999" points="245.3055,-81.3401 254.084,-75.4081 243.5223,-74.571 245.3055,-81.3401"/>
</g>
<!-- x11&#45;toolkits/qt5&#45;widgets -->
<g id="node22" class="node">
<title>x11&#45;toolkits/qt5&#45;widgets</title>
<ellipse fill="#e1e1e1" stroke="#000000" cx="322.6246" cy="-18" rx="98.2828" ry="18"/>
<text text-anchor="middle" x="322.6246" y="-14.3" font-family="Times,serif" font-size="14.00" fill="#737373">x11&#45;toolkits/qt5&#45;widgets</text>
</g>
<!-- databases/pgmodeler&#45;&gt;x11&#45;toolkits/qt5&#45;widgets -->
<g id="edge21" class="edge">
<title>databases/pgmodeler&#45;&gt;x11&#45;toolkits/qt5&#45;widgets</title>
<path fill="none" stroke="#009999" d="M86.888,-539.903C95.2111,-457.3617 133.5094,-117.4955 206.2849,-45 212.1207,-39.1867 218.9468,-34.5274 226.3155,-30.804"/>
<polygon fill="#009999" stroke="#009999" points="228.17,-33.8113 235.9056,-26.5718 225.3437,-27.4072 228.17,-33.8113"/>
</g>
</g>
</svg>
