<?xml version="1.0" encoding="UTF-8" standalone="no"?>
<!DOCTYPE svg PUBLIC "-//W3C//DTD SVG 1.1//EN"
 "http://www.w3.org/Graphics/SVG/1.1/DTD/svg11.dtd">
<!-- Generated by graphviz version 2.40.1 (20161225.0304)
 -->
<!-- Title: portscout Pages: 1 -->
<svg width="1220pt" height="282pt"
 viewBox="0.00 0.00 1220.11 282.00" xmlns="http://www.w3.org/2000/svg" xmlns:xlink="http://www.w3.org/1999/xlink">
<g id="graph0" class="graph" transform="scale(1 1) rotate(0) translate(4 278)">
<title>portscout</title>
<polygon fill="#ffffff" stroke="transparent" points="-4,4 -4,-278 1216.1084,-278 1216.1084,4 -4,4"/>
<!-- ports&#45;mgmt/portscout -->
<g id="node1" class="node">
<title>ports&#45;mgmt/portscout</title>
<ellipse fill="#e1e1e1" stroke="#000000" cx="90.342" cy="-195" rx="90.1842" ry="18"/>
<text text-anchor="middle" x="90.342" y="-191.3" font-family="Times,serif" font-size="14.00" fill="#737373">ports&#45;mgmt/portscout</text>
</g>
<!-- lang/perl5.24 -->
<g id="node2" class="node">
<title>lang/perl5.24</title>
<ellipse fill="#e1e1e1" stroke="#000000" cx="547.1078" cy="-256" rx="57.6901" ry="18"/>
<text text-anchor="middle" x="547.1078" y="-252.3" font-family="Times,serif" font-size="14.00" fill="#737373">lang/perl5.24</text>
</g>
<!-- ports&#45;mgmt/portscout&#45;&gt;lang/perl5.24 -->
<g id="edge1" class="edge">
<title>ports&#45;mgmt/portscout&#45;&gt;lang/perl5.24</title>
<path fill="none" stroke="#009999" d="M165.5117,-205.0387C254.2435,-216.8887 400.2419,-236.3864 483.5706,-247.5147"/>
<polygon fill="#009999" stroke="#009999" points="483.2862,-251.0078 493.6615,-248.8624 484.2128,-244.0694 483.2862,-251.0078"/>
</g>
<!-- databases/postgresql95&#45;client -->
<g id="node3" class="node">
<title>databases/postgresql95&#45;client</title>
<ellipse fill="#e1e1e1" stroke="#000000" cx="333.0236" cy="-172" rx="116.1796" ry="18"/>
<text text-anchor="middle" x="333.0236" y="-168.3" font-family="Times,serif" font-size="14.00" fill="#737373">databases/postgresql95&#45;client</text>
</g>
<!-- ports&#45;mgmt/portscout&#45;&gt;databases/postgresql95&#45;client -->
<g id="edge2" class="edge">
<title>ports&#45;mgmt/portscout&#45;&gt;databases/postgresql95&#45;client</title>
<path fill="none" stroke="#009999" d="M172.1646,-187.2453C188.6136,-185.6864 206.1503,-184.0243 223.37,-182.3924"/>
<polygon fill="#009999" stroke="#009999" points="223.8364,-185.8639 233.4616,-181.4359 223.1759,-178.8952 223.8364,-185.8639"/>
</g>
<!-- databases/postgresql95&#45;client&#45;&gt;lang/perl5.24 -->
<g id="edge12" class="edge">
<title>databases/postgresql95&#45;client&#45;&gt;lang/perl5.24</title>
<path fill="none" stroke="#009999" d="M375.8322,-188.7968C412.2362,-203.0806 464.3692,-223.5359 501.5403,-238.1207"/>
<polygon fill="#009999" stroke="#009999" points="500.5375,-241.487 511.125,-241.8815 503.0944,-234.9706 500.5375,-241.487"/>
</g>
<!-- devel/pkgconf -->
<g id="node4" class="node">
<title>devel/pkgconf</title>
<ellipse fill="#e1e1e1" stroke="#000000" cx="547.1078" cy="-72" rx="61.1893" ry="18"/>
<text text-anchor="middle" x="547.1078" y="-68.3" font-family="Times,serif" font-size="14.00" fill="#737373">devel/pkgconf</text>
</g>
<!-- databases/postgresql95&#45;client&#45;&gt;devel/pkgconf -->
<g id="edge3" class="edge">
<title>databases/postgresql95&#45;client&#45;&gt;devel/pkgconf</title>
<path fill="none" stroke="#009999" d="M368.2597,-154.6887C399.0317,-139.673 444.9684,-117.5038 485.3633,-99 491.0872,-96.378 497.133,-93.6653 503.1124,-91.0159"/>
<polygon fill="#009999" stroke="#009999" points="504.6569,-94.1602 512.3982,-86.9268 501.8357,-87.7539 504.6569,-94.1602"/>
</g>
<!-- devel/gmake -->
<g id="node5" class="node">
<title>devel/gmake</title>
<ellipse fill="#e1e1e1" stroke="#000000" cx="547.1078" cy="-18" rx="55.7903" ry="18"/>
<text text-anchor="middle" x="547.1078" y="-14.3" font-family="Times,serif" font-size="14.00" fill="#737373">devel/gmake</text>
</g>
<!-- databases/postgresql95&#45;client&#45;&gt;devel/gmake -->
<g id="edge4" class="edge">
<title>databases/postgresql95&#45;client&#45;&gt;devel/gmake</title>
<path fill="none" stroke="#009999" d="M350.9375,-154.1225C378.146,-127.6852 432.3479,-77.7659 485.3633,-45 490.4638,-41.8476 495.9968,-38.8754 501.5846,-36.1374"/>
<polygon fill="#009999" stroke="#009999" points="503.3889,-39.1579 510.9735,-31.7603 500.4312,-32.8135 503.3889,-39.1579"/>
</g>
<!-- devel/gettext&#45;tools -->
<g id="node6" class="node">
<title>devel/gettext&#45;tools</title>
<ellipse fill="#e1e1e1" stroke="#000000" cx="722.1955" cy="-106" rx="77.1866" ry="18"/>
<text text-anchor="middle" x="722.1955" y="-102.3" font-family="Times,serif" font-size="14.00" fill="#737373">devel/gettext&#45;tools</text>
</g>
<!-- databases/postgresql95&#45;client&#45;&gt;devel/gettext&#45;tools -->
<g id="edge11" class="edge">
<title>databases/postgresql95&#45;client&#45;&gt;devel/gettext&#45;tools</title>
<path fill="none" stroke="#009999" d="M449.3461,-172.3153C499.0346,-170.3163 557.3368,-165.1127 608.8524,-153 633.6685,-147.1651 660.0517,-136.5147 681.1137,-126.8261"/>
<polygon fill="#009999" stroke="#009999" points="682.8319,-129.8858 690.3917,-122.463 679.8529,-123.5513 682.8319,-129.8858"/>
</g>
<!-- devel/gettext&#45;runtime -->
<g id="node8" class="node">
<title>devel/gettext&#45;runtime</title>
<ellipse fill="#e1e1e1" stroke="#000000" cx="924.5807" cy="-64" rx="89.0842" ry="18"/>
<text text-anchor="middle" x="924.5807" y="-60.3" font-family="Times,serif" font-size="14.00" fill="#737373">devel/gettext&#45;runtime</text>
</g>
<!-- databases/postgresql95&#45;client&#45;&gt;devel/gettext&#45;runtime -->
<g id="edge14" class="edge">
<title>databases/postgresql95&#45;client&#45;&gt;devel/gettext&#45;runtime</title>
<path fill="none" stroke="#009999" d="M448.6378,-174.5157C461.0344,-174.7141 473.4601,-174.8828 485.3633,-175 626.2322,-176.3869 667.7191,-182.6948 799.5386,-133 831.5663,-120.9258 865.4129,-101.8093 889.8035,-86.7566"/>
<polygon fill="#009999" stroke="#009999" points="891.7197,-89.6864 898.3408,-81.4153 888.0069,-83.7521 891.7197,-89.6864"/>
</g>
<!-- devel/readline -->
<g id="node9" class="node">
<title>devel/readline</title>
<ellipse fill="#e1e1e1" stroke="#000000" cx="547.1078" cy="-126" rx="61.99" ry="18"/>
<text text-anchor="middle" x="547.1078" y="-122.3" font-family="Times,serif" font-size="14.00" fill="#737373">devel/readline</text>
</g>
<!-- databases/postgresql95&#45;client&#45;&gt;devel/readline -->
<g id="edge13" class="edge">
<title>databases/postgresql95&#45;client&#45;&gt;devel/readline</title>
<path fill="none" stroke="#009999" d="M401.0554,-157.3821C428.7397,-151.4336 460.457,-144.6186 487.2457,-138.8625"/>
<polygon fill="#009999" stroke="#009999" points="488.2112,-142.235 497.2528,-136.7123 486.7407,-135.3912 488.2112,-142.235"/>
</g>
<!-- devel/gmake&#45;&gt;devel/gettext&#45;tools -->
<g id="edge5" class="edge">
<title>devel/gmake&#45;&gt;devel/gettext&#45;tools</title>
<path fill="none" stroke="#009999" d="M582.7427,-31.9096C591.4781,-35.7709 600.6656,-40.2267 608.8524,-45 626.13,-55.0738 627.5845,-61.9094 644.8524,-72 653.5906,-77.1062 663.2371,-81.9299 672.6675,-86.2523"/>
<polygon fill="#009999" stroke="#009999" points="671.4251,-89.5303 681.9842,-90.3996 674.2718,-83.1353 671.4251,-89.5303"/>
</g>
<!-- converters/libiconv -->
<g id="node7" class="node">
<title>converters/libiconv</title>
<ellipse fill="#e1e1e1" stroke="#000000" cx="1130.8656" cy="-64" rx="81.4863" ry="18"/>
<text text-anchor="middle" x="1130.8656" y="-60.3" font-family="Times,serif" font-size="14.00" fill="#737373">converters/libiconv</text>
</g>
<!-- devel/gmake&#45;&gt;converters/libiconv -->
<g id="edge9" class="edge">
<title>devel/gmake&#45;&gt;converters/libiconv</title>
<path fill="none" stroke="#009999" d="M603.0522,-16.9401C690.9078,-16.0251 866.4038,-17.2249 1013.6228,-37 1032.0504,-39.4753 1051.8383,-43.4936 1069.8125,-47.6827"/>
<polygon fill="#009999" stroke="#009999" points="1069.0518,-51.0994 1079.5914,-50.0188 1070.6784,-44.291 1069.0518,-51.0994"/>
</g>
<!-- devel/gmake&#45;&gt;devel/gettext&#45;runtime -->
<g id="edge10" class="edge">
<title>devel/gmake&#45;&gt;devel/gettext&#45;runtime</title>
<path fill="none" stroke="#009999" d="M598.0541,-25.576C613.1113,-27.7396 629.6353,-30.0402 644.8524,-32 708.6338,-40.2142 780.737,-48.4371 835.7636,-54.4902"/>
<polygon fill="#009999" stroke="#009999" points="835.5117,-57.9835 845.8337,-55.5947 836.2749,-51.0252 835.5117,-57.9835"/>
</g>
<!-- devel/gettext&#45;tools&#45;&gt;converters/libiconv -->
<g id="edge6" class="edge">
<title>devel/gettext&#45;tools&#45;&gt;converters/libiconv</title>
<path fill="none" stroke="#009999" d="M799.5496,-105.6925C858.4827,-104.5711 941.4975,-101.0821 1013.6228,-91 1031.9496,-88.4382 1051.6332,-84.4159 1069.5396,-80.2508"/>
<polygon fill="#009999" stroke="#009999" points="1070.3674,-83.6516 1079.2848,-77.9305 1068.746,-76.8419 1070.3674,-83.6516"/>
</g>
<!-- devel/gettext&#45;tools&#45;&gt;devel/gettext&#45;runtime -->
<g id="edge7" class="edge">
<title>devel/gettext&#45;tools&#45;&gt;devel/gettext&#45;runtime</title>
<path fill="none" stroke="#009999" d="M780.191,-93.9645C802.6761,-89.2983 828.6641,-83.9051 852.3426,-78.9912"/>
<polygon fill="#009999" stroke="#009999" points="853.252,-82.3771 862.3322,-76.9181 851.8296,-75.5232 853.252,-82.3771"/>
</g>
<!-- devel/gettext&#45;runtime&#45;&gt;converters/libiconv -->
<g id="edge8" class="edge">
<title>devel/gettext&#45;runtime&#45;&gt;converters/libiconv</title>
<path fill="none" stroke="#009999" d="M1013.8605,-64C1022.2985,-64 1030.8626,-64 1039.3213,-64"/>
<polygon fill="#009999" stroke="#009999" points="1039.5712,-67.5001 1049.5712,-64 1039.5712,-60.5001 1039.5712,-67.5001"/>
</g>
</g>
</svg>
