<?xml version="1.0" encoding="UTF-8" standalone="no"?>
<!DOCTYPE svg PUBLIC "-//W3C//DTD SVG 1.1//EN"
 "http://www.w3.org/Graphics/SVG/1.1/DTD/svg11.dtd">
<!-- Generated by graphviz version 2.40.1 (20161225.0304)
 -->
<!-- Title: portscout Pages: 1 -->
<svg width="1386pt" height="432pt"
 viewBox="0.00 0.00 1386.10 431.51" xmlns="http://www.w3.org/2000/svg" xmlns:xlink="http://www.w3.org/1999/xlink">
<g id="graph0" class="graph" transform="scale(1 1) rotate(0) translate(4 427.5075)">
<title>portscout</title>
<polygon fill="#ffffff" stroke="transparent" points="-4,4 -4,-427.5075 1382.0969,-427.5075 1382.0969,4 -4,4"/>
<!-- ports&#45;mgmt/portscout -->
<g id="node1" class="node">
<title>ports&#45;mgmt/portscout</title>
<ellipse fill="#e1e1e1" stroke="#000000" cx="90.342" cy="-373" rx="90.1842" ry="18"/>
<text text-anchor="middle" x="90.342" y="-369.3" font-family="Times,serif" font-size="14.00" fill="#737373">ports&#45;mgmt/portscout</text>
</g>
<!-- ports&#45;mgmt/pkg -->
<g id="node2" class="node">
<title>ports&#45;mgmt/pkg</title>
<ellipse fill="#e1e1e1" stroke="#000000" cx="1309.203" cy="-243" rx="68.7879" ry="18"/>
<text text-anchor="middle" x="1309.203" y="-239.3" font-family="Times,serif" font-size="14.00" fill="#737373">ports&#45;mgmt/pkg</text>
</g>
<!-- ports&#45;mgmt/portscout&#45;&gt;ports&#45;mgmt/pkg -->
<g id="edge1" class="edge">
<title>ports&#45;mgmt/portscout&#45;&gt;ports&#45;mgmt/pkg</title>
<path fill="none" stroke="#009999" d="M159.942,-384.4891C248.6581,-398.114 406.8863,-419 543.2082,-419 543.2082,-419 543.2082,-419 916.7814,-419 1045.9277,-419 1092.6103,-441.8239 1204.3091,-377 1247.6127,-351.869 1279.5508,-301.2883 1296.1942,-269.9658"/>
<polygon fill="#009999" stroke="#009999" points="1299.3902,-271.4047 1300.864,-260.9128 1293.1691,-268.1956 1299.3902,-271.4047"/>
</g>
<!-- lang/perl5.24 -->
<g id="node3" class="node">
<title>lang/perl5.24</title>
<ellipse fill="#e1e1e1" stroke="#000000" cx="543.2082" cy="-373" rx="57.6901" ry="18"/>
<text text-anchor="middle" x="543.2082" y="-369.3" font-family="Times,serif" font-size="14.00" fill="#737373">lang/perl5.24</text>
</g>
<!-- ports&#45;mgmt/portscout&#45;&gt;lang/perl5.24 -->
<g id="edge2" class="edge">
<title>ports&#45;mgmt/portscout&#45;&gt;lang/perl5.24</title>
<path fill="none" stroke="#009999" d="M180.8978,-373C267.6052,-373 396.4948,-373 474.8925,-373"/>
<polygon fill="#009999" stroke="#009999" points="475.1385,-376.5001 485.1384,-373 475.1384,-369.5001 475.1385,-376.5001"/>
</g>
<!-- databases/postgresql95&#45;client -->
<g id="node4" class="node">
<title>databases/postgresql95&#45;client</title>
<ellipse fill="#e1e1e1" stroke="#000000" cx="333.0236" cy="-226" rx="116.1796" ry="18"/>
<text text-anchor="middle" x="333.0236" y="-222.3" font-family="Times,serif" font-size="14.00" fill="#737373">databases/postgresql95&#45;client</text>
</g>
<!-- ports&#45;mgmt/portscout&#45;&gt;databases/postgresql95&#45;client -->
<g id="edge4" class="edge">
<title>ports&#45;mgmt/portscout&#45;&gt;databases/postgresql95&#45;client</title>
<path fill="none" stroke="#009999" d="M118.6556,-355.8495C162.4425,-329.3264 246.6203,-278.3372 295.4497,-248.7597"/>
<polygon fill="#009999" stroke="#009999" points="297.3982,-251.6715 304.1381,-243.4969 293.7715,-245.6843 297.3982,-251.6715"/>
</g>
<!-- lang/perl5.24&#45;&gt;ports&#45;mgmt/pkg -->
<g id="edge3" class="edge">
<title>lang/perl5.24&#45;&gt;ports&#45;mgmt/pkg</title>
<path fill="none" stroke="#009999" d="M600.1644,-376.2315C740.0497,-383.3303 1096.9021,-396.1256 1204.3091,-349 1242.2712,-332.3439 1273.781,-295.0547 1292.0586,-269.4595"/>
<polygon fill="#009999" stroke="#009999" points="1295.1391,-271.1591 1297.9606,-260.9468 1289.3865,-267.1706 1295.1391,-271.1591"/>
</g>
<!-- databases/postgresql95&#45;client&#45;&gt;ports&#45;mgmt/pkg -->
<g id="edge5" class="edge">
<title>databases/postgresql95&#45;client&#45;&gt;ports&#45;mgmt/pkg</title>
<path fill="none" stroke="#009999" d="M374.9205,-242.863C432.7393,-265.0937 540.7798,-302.918 637.0531,-316 887.4608,-350.0265 956.8327,-328.1588 1204.3091,-277 1222.8014,-273.1772 1242.6163,-267.2525 1259.9891,-261.4132"/>
<polygon fill="#009999" stroke="#009999" points="1261.5896,-264.564 1269.9073,-258.0015 1259.3126,-257.9447 1261.5896,-264.564"/>
</g>
<!-- databases/postgresql95&#45;client&#45;&gt;lang/perl5.24 -->
<g id="edge20" class="edge">
<title>databases/postgresql95&#45;client&#45;&gt;lang/perl5.24</title>
<path fill="none" stroke="#009999" d="M354.519,-243.7674C383.398,-267.2736 436.7282,-309.4158 485.3633,-341 491.4513,-344.9536 498.062,-348.9069 504.5655,-352.6188"/>
<polygon fill="#009999" stroke="#009999" points="502.8721,-355.6819 513.3083,-357.5082 506.2888,-349.5724 502.8721,-355.6819"/>
</g>
<!-- devel/pkgconf -->
<g id="node5" class="node">
<title>devel/pkgconf</title>
<ellipse fill="#e1e1e1" stroke="#000000" cx="714.3962" cy="-289" rx="61.1893" ry="18"/>
<text text-anchor="middle" x="714.3962" y="-285.3" font-family="Times,serif" font-size="14.00" fill="#737373">devel/pkgconf</text>
</g>
<!-- databases/postgresql95&#45;client&#45;&gt;devel/pkgconf -->
<g id="edge6" class="edge">
<title>databases/postgresql95&#45;client&#45;&gt;devel/pkgconf</title>
<path fill="none" stroke="#009999" d="M412.9718,-239.2069C483.6706,-250.8858 585.4488,-267.6988 650.7539,-278.4867"/>
<polygon fill="#009999" stroke="#009999" points="650.4747,-281.988 660.9114,-280.1647 651.6156,-275.0816 650.4747,-281.988"/>
</g>
<!-- devel/gmake -->
<g id="node6" class="node">
<title>devel/gmake</title>
<ellipse fill="#e1e1e1" stroke="#000000" cx="543.2082" cy="-159" rx="55.7903" ry="18"/>
<text text-anchor="middle" x="543.2082" y="-155.3" font-family="Times,serif" font-size="14.00" fill="#737373">devel/gmake</text>
</g>
<!-- databases/postgresql95&#45;client&#45;&gt;devel/gmake -->
<g id="edge8" class="edge">
<title>databases/postgresql95&#45;client&#45;&gt;devel/gmake</title>
<path fill="none" stroke="#009999" d="M383.9035,-209.7812C417.1547,-199.1817 460.377,-185.4039 493.4091,-174.8743"/>
<polygon fill="#009999" stroke="#009999" points="494.8463,-178.0898 503.311,-171.7179 492.7203,-171.4204 494.8463,-178.0898"/>
</g>
<!-- devel/gettext&#45;tools -->
<g id="node7" class="node">
<title>devel/gettext&#45;tools</title>
<ellipse fill="#e1e1e1" stroke="#000000" cx="714.3962" cy="-83" rx="77.1866" ry="18"/>
<text text-anchor="middle" x="714.3962" y="-79.3" font-family="Times,serif" font-size="14.00" fill="#737373">devel/gettext&#45;tools</text>
</g>
<!-- databases/postgresql95&#45;client&#45;&gt;devel/gettext&#45;tools -->
<g id="edge19" class="edge">
<title>databases/postgresql95&#45;client&#45;&gt;devel/gettext&#45;tools</title>
<path fill="none" stroke="#009999" d="M355.9444,-208.3415C384.6432,-187.0902 436.0475,-151.801 485.3633,-132 533.6,-112.6323 590.7713,-100.389 635.9269,-92.9843"/>
<polygon fill="#009999" stroke="#009999" points="636.6322,-96.4161 645.957,-91.3863 635.5308,-89.5033 636.6322,-96.4161"/>
</g>
<!-- devel/gettext&#45;runtime -->
<g id="node9" class="node">
<title>devel/gettext&#45;runtime</title>
<ellipse fill="#e1e1e1" stroke="#000000" cx="916.7814" cy="-186" rx="89.0842" ry="18"/>
<text text-anchor="middle" x="916.7814" y="-182.3" font-family="Times,serif" font-size="14.00" fill="#737373">devel/gettext&#45;runtime</text>
</g>
<!-- databases/postgresql95&#45;client&#45;&gt;devel/gettext&#45;runtime -->
<g id="edge23" class="edge">
<title>databases/postgresql95&#45;client&#45;&gt;devel/gettext&#45;runtime</title>
<path fill="none" stroke="#009999" d="M439.415,-218.7099C548.7377,-211.2189 717.3381,-199.6662 822.1546,-192.484"/>
<polygon fill="#009999" stroke="#009999" points="822.6717,-195.9568 832.409,-191.7813 822.1931,-188.9732 822.6717,-195.9568"/>
</g>
<!-- devel/readline -->
<g id="node10" class="node">
<title>devel/readline</title>
<ellipse fill="#e1e1e1" stroke="#000000" cx="916.7814" cy="-18" rx="61.99" ry="18"/>
<text text-anchor="middle" x="916.7814" y="-14.3" font-family="Times,serif" font-size="14.00" fill="#737373">devel/readline</text>
</g>
<!-- databases/postgresql95&#45;client&#45;&gt;devel/readline -->
<g id="edge21" class="edge">
<title>databases/postgresql95&#45;client&#45;&gt;devel/readline</title>
<path fill="none" stroke="#009999" d="M348.9454,-207.9739C374.7808,-179.8437 428.6813,-125.6631 485.3633,-96 601.1089,-35.4274 755.5752,-21.0154 844.8134,-18.0947"/>
<polygon fill="#009999" stroke="#009999" points="844.9393,-21.5927 854.8345,-17.8063 844.7379,-14.5956 844.9393,-21.5927"/>
</g>
<!-- devel/pkgconf&#45;&gt;ports&#45;mgmt/pkg -->
<g id="edge7" class="edge">
<title>devel/pkgconf&#45;&gt;ports&#45;mgmt/pkg</title>
<path fill="none" stroke="#009999" d="M774.8413,-286.366C867.4463,-282.034 1049.9393,-272.3257 1204.3091,-257 1215.4799,-255.891 1227.2938,-254.5138 1238.8074,-253.0597"/>
<polygon fill="#009999" stroke="#009999" points="1239.3547,-256.5182 1248.8244,-251.7668 1238.4586,-249.5757 1239.3547,-256.5182"/>
</g>
<!-- devel/gmake&#45;&gt;ports&#45;mgmt/pkg -->
<g id="edge9" class="edge">
<title>devel/gmake&#45;&gt;ports&#45;mgmt/pkg</title>
<path fill="none" stroke="#009999" d="M584.049,-171.5064C600.4156,-176.2049 619.5188,-181.2987 637.0531,-185 848.005,-229.5296 1103.1072,-240.0091 1229.8005,-242.3827"/>
<polygon fill="#009999" stroke="#009999" points="1230.1175,-245.8887 1240.1772,-242.5642 1230.24,-238.8898 1230.1175,-245.8887"/>
</g>
<!-- devel/gmake&#45;&gt;devel/gettext&#45;tools -->
<g id="edge10" class="edge">
<title>devel/gmake&#45;&gt;devel/gettext&#45;tools</title>
<path fill="none" stroke="#009999" d="M574.3248,-143.9707C592.5175,-135.2942 615.9787,-124.2942 637.0531,-115 646.4267,-110.866 656.5032,-106.5821 666.1846,-102.5443"/>
<polygon fill="#009999" stroke="#009999" points="667.7956,-105.6654 675.6935,-98.6033 665.1155,-99.1988 667.7956,-105.6654"/>
</g>
<!-- converters/libiconv -->
<g id="node8" class="node">
<title>converters/libiconv</title>
<ellipse fill="#e1e1e1" stroke="#000000" cx="1123.0663" cy="-153" rx="81.4863" ry="18"/>
<text text-anchor="middle" x="1123.0663" y="-149.3" font-family="Times,serif" font-size="14.00" fill="#737373">converters/libiconv</text>
</g>
<!-- devel/gmake&#45;&gt;converters/libiconv -->
<g id="edge17" class="edge">
<title>devel/gmake&#45;&gt;converters/libiconv</title>
<path fill="none" stroke="#009999" d="M599.3343,-158.4192C699.5479,-157.3823 910.1104,-155.2035 1031.5138,-153.9473"/>
<polygon fill="#009999" stroke="#009999" points="1031.5736,-157.447 1041.5368,-153.8436 1031.5011,-150.4474 1031.5736,-157.447"/>
</g>
<!-- devel/gmake&#45;&gt;devel/gettext&#45;runtime -->
<g id="edge18" class="edge">
<title>devel/gmake&#45;&gt;devel/gettext&#45;runtime</title>
<path fill="none" stroke="#009999" d="M597.929,-162.9549C656.8439,-167.213 751.647,-174.0649 822.5926,-179.1925"/>
<polygon fill="#009999" stroke="#009999" points="822.6534,-182.7059 832.8798,-179.936 823.1581,-175.7242 822.6534,-182.7059"/>
</g>
<!-- devel/gettext&#45;tools&#45;&gt;ports&#45;mgmt/pkg -->
<g id="edge11" class="edge">
<title>devel/gettext&#45;tools&#45;&gt;ports&#45;mgmt/pkg</title>
<path fill="none" stroke="#009999" d="M778.9453,-73.0798C877.3241,-61.2329 1067.7413,-51.4151 1204.3091,-126 1243.2439,-147.2638 1275.0397,-188.7236 1293.0557,-216.1413"/>
<polygon fill="#009999" stroke="#009999" points="1290.2905,-218.3138 1298.6276,-224.8517 1296.1873,-214.5417 1290.2905,-218.3138"/>
</g>
<!-- devel/gettext&#45;tools&#45;&gt;converters/libiconv -->
<g id="edge12" class="edge">
<title>devel/gettext&#45;tools&#45;&gt;converters/libiconv</title>
<path fill="none" stroke="#009999" d="M782.6649,-91.5054C841.8892,-99.2574 929.8102,-111.6632 1005.8235,-126 1023.0674,-129.2523 1041.62,-133.2778 1058.7652,-137.2188"/>
<polygon fill="#009999" stroke="#009999" points="1058.1441,-140.6676 1068.6769,-139.5229 1059.7291,-133.8494 1058.1441,-140.6676"/>
</g>
<!-- devel/gettext&#45;tools&#45;&gt;devel/gettext&#45;runtime -->
<g id="edge14" class="edge">
<title>devel/gettext&#45;tools&#45;&gt;devel/gettext&#45;runtime</title>
<path fill="none" stroke="#009999" d="M746.9129,-99.5487C781.5236,-117.1632 836.4288,-145.1061 874.4054,-164.4336"/>
<polygon fill="#009999" stroke="#009999" points="873.1734,-167.7337 883.6731,-169.1502 876.3484,-161.4951 873.1734,-167.7337"/>
</g>
<!-- converters/libiconv&#45;&gt;ports&#45;mgmt/pkg -->
<g id="edge13" class="edge">
<title>converters/libiconv&#45;&gt;ports&#45;mgmt/pkg</title>
<path fill="none" stroke="#009999" d="M1163.0653,-168.8632C1176.3104,-174.3478 1191.0499,-180.7032 1204.3091,-187 1226.8464,-197.7029 1251.4829,-210.7815 1271.2134,-221.6072"/>
<polygon fill="#009999" stroke="#009999" points="1269.7444,-224.7941 1280.1906,-226.5627 1273.1273,-218.6658 1269.7444,-224.7941"/>
</g>
<!-- devel/gettext&#45;runtime&#45;&gt;ports&#45;mgmt/pkg -->
<g id="edge15" class="edge">
<title>devel/gettext&#45;runtime&#45;&gt;ports&#45;mgmt/pkg</title>
<path fill="none" stroke="#009999" d="M989.2149,-196.5211C1060.3488,-206.8534 1168.1681,-222.5144 1238.6475,-232.7517"/>
<polygon fill="#009999" stroke="#009999" points="1238.3671,-236.2476 1248.7664,-234.2215 1239.3734,-229.3203 1238.3671,-236.2476"/>
</g>
<!-- devel/gettext&#45;runtime&#45;&gt;converters/libiconv -->
<g id="edge16" class="edge">
<title>devel/gettext&#45;runtime&#45;&gt;converters/libiconv</title>
<path fill="none" stroke="#009999" d="M986.6201,-174.8277C1006.1183,-171.7085 1027.3954,-168.3048 1047.2222,-165.133"/>
<polygon fill="#009999" stroke="#009999" points="1047.8102,-168.5835 1057.1317,-163.5478 1046.7044,-161.6714 1047.8102,-168.5835"/>
</g>
<!-- devel/readline&#45;&gt;ports&#45;mgmt/pkg -->
<g id="edge22" class="edge">
<title>devel/readline&#45;&gt;ports&#45;mgmt/pkg</title>
<path fill="none" stroke="#009999" d="M972.1914,-9.8902C1034.1567,-3.8392 1134.9089,-3.3414 1204.3091,-50 1262.4919,-89.117 1291.204,-171.5844 1302.7675,-214.9664"/>
<polygon fill="#009999" stroke="#009999" points="1299.4257,-216.0267 1305.285,-224.8539 1306.2093,-214.2994 1299.4257,-216.0267"/>
</g>
</g>
</svg>
