<?xml version="1.0" encoding="UTF-8" standalone="no"?>
<!DOCTYPE svg PUBLIC "-//W3C//DTD SVG 1.1//EN"
 "http://www.w3.org/Graphics/SVG/1.1/DTD/svg11.dtd">
<!-- Generated by graphviz version 2.40.1 (20161225.0304)
 -->
<!-- Title: py&#45;portgraph Pages: 1 -->
<svg width="1224pt" height="244pt"
 viewBox="0.00 0.00 1224.01 244.00" xmlns="http://www.w3.org/2000/svg" xmlns:xlink="http://www.w3.org/1999/xlink">
<g id="graph0" class="graph" transform="scale(1 1) rotate(0) translate(4 240)">
<title>py&#45;portgraph</title>
<polygon fill="#ffffff" stroke="transparent" points="-4,4 -4,-240 1220.0081,-240 1220.0081,4 -4,4"/>
<!-- ports&#45;mgmt/py&#45;portgraph -->
<g id="node1" class="node">
<title>ports&#45;mgmt/py&#45;portgraph</title>
<ellipse fill="#e1e1e1" stroke="#000000" cx="102.6909" cy="-126" rx="102.8821" ry="18"/>
<text text-anchor="middle" x="102.6909" y="-122.3" font-family="Times,serif" font-size="14.00" fill="#737373">ports&#45;mgmt/py&#45;portgraph</text>
</g>
<!-- devel/py&#45;setuptools@py36 -->
<g id="node2" class="node">
<title>devel/py&#45;setuptools@py36</title>
<ellipse fill="#e1e1e1" stroke="#000000" cx="346.6724" cy="-149" rx="105.0817" ry="18"/>
<text text-anchor="middle" x="346.6724" y="-145.3" font-family="Times,serif" font-size="14.00" fill="#737373">devel/py&#45;setuptools@py36</text>
</g>
<!-- ports&#45;mgmt/py&#45;portgraph&#45;&gt;devel/py&#45;setuptools@py36 -->
<g id="edge1" class="edge">
<title>ports&#45;mgmt/py&#45;portgraph&#45;&gt;devel/py&#45;setuptools@py36</title>
<path fill="none" stroke="#009999" d="M193.1939,-134.5317C209.7029,-136.088 227.0377,-137.7221 243.8724,-139.3091"/>
<polygon fill="#009999" stroke="#009999" points="243.9935,-142.836 254.2779,-140.29 244.6506,-135.8668 243.9935,-142.836"/>
</g>
<!-- lang/python36 -->
<g id="node3" class="node">
<title>lang/python36</title>
<ellipse fill="#e1e1e1" stroke="#000000" cx="550.3576" cy="-126" rx="62.2891" ry="18"/>
<text text-anchor="middle" x="550.3576" y="-122.3" font-family="Times,serif" font-size="14.00" fill="#737373">lang/python36</text>
</g>
<!-- ports&#45;mgmt/py&#45;portgraph&#45;&gt;lang/python36 -->
<g id="edge6" class="edge">
<title>ports&#45;mgmt/py&#45;portgraph&#45;&gt;lang/python36</title>
<path fill="none" stroke="#009999" d="M203.8066,-122.7446C216.457,-122.4372 229.2185,-122.1754 241.3818,-122 334.9637,-120.6508 358.3907,-120.0988 451.9631,-122 460.5944,-122.1754 469.6489,-122.4372 478.6239,-122.7445"/>
<polygon fill="#009999" stroke="#009999" points="478.5764,-126.245 488.6964,-123.1087 478.8294,-119.2496 478.5764,-126.245"/>
</g>
<!-- devel/py&#45;setuptools@py36&#45;&gt;lang/python36 -->
<g id="edge2" class="edge">
<title>devel/py&#45;setuptools@py36&#45;&gt;lang/python36</title>
<path fill="none" stroke="#009999" d="M434.5311,-139.079C450.3654,-137.2911 466.6594,-135.4511 481.8426,-133.7367"/>
<polygon fill="#009999" stroke="#009999" points="482.6132,-137.172 492.1573,-132.5719 481.8277,-130.2162 482.6132,-137.172"/>
</g>
<!-- devel/gettext&#45;tools -->
<g id="node4" class="node">
<title>devel/gettext&#45;tools</title>
<ellipse fill="#e1e1e1" stroke="#000000" cx="726.0952" cy="-218" rx="77.1866" ry="18"/>
<text text-anchor="middle" x="726.0952" y="-214.3" font-family="Times,serif" font-size="14.00" fill="#737373">devel/gettext&#45;tools</text>
</g>
<!-- lang/python36&#45;&gt;devel/gettext&#45;tools -->
<g id="edge8" class="edge">
<title>lang/python36&#45;&gt;devel/gettext&#45;tools</title>
<path fill="none" stroke="#009999" d="M575.2225,-142.649C594.7545,-155.3585 622.8856,-172.8627 648.752,-186 657.4064,-190.3955 666.8101,-194.6758 675.983,-198.6018"/>
<polygon fill="#009999" stroke="#009999" points="674.8417,-201.9184 685.4174,-202.5548 677.5469,-195.4622 674.8417,-201.9184"/>
</g>
<!-- devel/gettext&#45;runtime -->
<g id="node6" class="node">
<title>devel/gettext&#45;runtime</title>
<ellipse fill="#e1e1e1" stroke="#000000" cx="928.4804" cy="-172" rx="89.0842" ry="18"/>
<text text-anchor="middle" x="928.4804" y="-168.3" font-family="Times,serif" font-size="14.00" fill="#737373">devel/gettext&#45;runtime</text>
</g>
<!-- lang/python36&#45;&gt;devel/gettext&#45;runtime -->
<g id="edge11" class="edge">
<title>lang/python36&#45;&gt;devel/gettext&#45;runtime</title>
<path fill="none" stroke="#009999" d="M592.0787,-139.4343C609.4305,-144.4999 629.8898,-149.8046 648.752,-153 708.1532,-163.0631 775.5044,-167.8369 829.2324,-170.0836"/>
<polygon fill="#009999" stroke="#009999" points="829.3146,-173.5895 839.445,-170.4873 829.5911,-166.595 829.3146,-173.5895"/>
</g>
<!-- devel/pkgconf -->
<g id="node7" class="node">
<title>devel/pkgconf</title>
<ellipse fill="#e1e1e1" stroke="#000000" cx="726.0952" cy="-126" rx="61.1893" ry="18"/>
<text text-anchor="middle" x="726.0952" y="-122.3" font-family="Times,serif" font-size="14.00" fill="#737373">devel/pkgconf</text>
</g>
<!-- lang/python36&#45;&gt;devel/pkgconf -->
<g id="edge7" class="edge">
<title>lang/python36&#45;&gt;devel/pkgconf</title>
<path fill="none" stroke="#009999" d="M612.8109,-126C626.2543,-126 640.5662,-126 654.3321,-126"/>
<polygon fill="#009999" stroke="#009999" points="654.729,-129.5001 664.729,-126 654.729,-122.5001 654.729,-129.5001"/>
</g>
<!-- devel/libffi -->
<g id="node8" class="node">
<title>devel/libffi</title>
<ellipse fill="#e1e1e1" stroke="#000000" cx="726.0952" cy="-72" rx="50.0912" ry="18"/>
<text text-anchor="middle" x="726.0952" y="-68.3" font-family="Times,serif" font-size="14.00" fill="#737373">devel/libffi</text>
</g>
<!-- lang/python36&#45;&gt;devel/libffi -->
<g id="edge9" class="edge">
<title>lang/python36&#45;&gt;devel/libffi</title>
<path fill="none" stroke="#009999" d="M593.3478,-112.7901C619.0274,-104.8994 651.6975,-94.8606 678.2011,-86.7167"/>
<polygon fill="#009999" stroke="#009999" points="679.4987,-89.9796 688.0295,-83.6967 677.4426,-83.2883 679.4987,-89.9796"/>
</g>
<!-- devel/readline -->
<g id="node9" class="node">
<title>devel/readline</title>
<ellipse fill="#e1e1e1" stroke="#000000" cx="726.0952" cy="-18" rx="61.99" ry="18"/>
<text text-anchor="middle" x="726.0952" y="-14.3" font-family="Times,serif" font-size="14.00" fill="#737373">devel/readline</text>
</g>
<!-- lang/python36&#45;&gt;devel/readline -->
<g id="edge10" class="edge">
<title>lang/python36&#45;&gt;devel/readline</title>
<path fill="none" stroke="#009999" d="M567.7768,-108.364C586.4061,-90.3398 617.5096,-62.5703 648.752,-45 656.0582,-40.8911 664.0996,-37.2431 672.1506,-34.0615"/>
<polygon fill="#009999" stroke="#009999" points="673.4225,-37.3227 681.5626,-30.5412 670.9702,-30.7662 673.4225,-37.3227"/>
</g>
<!-- converters/libiconv -->
<g id="node5" class="node">
<title>converters/libiconv</title>
<ellipse fill="#e1e1e1" stroke="#000000" cx="1134.7653" cy="-195" rx="81.4863" ry="18"/>
<text text-anchor="middle" x="1134.7653" y="-191.3" font-family="Times,serif" font-size="14.00" fill="#737373">converters/libiconv</text>
</g>
<!-- devel/gettext&#45;tools&#45;&gt;converters/libiconv -->
<g id="edge3" class="edge">
<title>devel/gettext&#45;tools&#45;&gt;converters/libiconv</title>
<path fill="none" stroke="#009999" d="M801.5278,-213.7546C870.5825,-209.8682 972.8348,-204.1135 1045.8408,-200.0047"/>
<polygon fill="#009999" stroke="#009999" points="1046.1542,-203.4927 1055.9417,-199.4362 1045.7608,-196.5037 1046.1542,-203.4927"/>
</g>
<!-- devel/gettext&#45;tools&#45;&gt;devel/gettext&#45;runtime -->
<g id="edge4" class="edge">
<title>devel/gettext&#45;tools&#45;&gt;devel/gettext&#45;runtime</title>
<path fill="none" stroke="#009999" d="M781.6655,-205.3695C805.6326,-199.922 833.9181,-193.493 859.2319,-187.7395"/>
<polygon fill="#009999" stroke="#009999" points="860.1629,-191.1172 869.1384,-185.4878 858.6114,-184.2913 860.1629,-191.1172"/>
</g>
<!-- devel/gettext&#45;runtime&#45;&gt;converters/libiconv -->
<g id="edge5" class="edge">
<title>devel/gettext&#45;runtime&#45;&gt;converters/libiconv</title>
<path fill="none" stroke="#009999" d="M1006.4679,-180.6953C1021.3001,-182.3491 1036.8715,-184.0852 1051.8505,-185.7553"/>
<polygon fill="#009999" stroke="#009999" points="1051.7832,-189.2694 1062.1095,-186.8991 1052.5589,-182.3125 1051.7832,-189.2694"/>
</g>
</g>
</svg>
