<?xml version="1.0" encoding="UTF-8" standalone="no"?>
<!DOCTYPE svg PUBLIC "-//W3C//DTD SVG 1.1//EN"
 "http://www.w3.org/Graphics/SVG/1.1/DTD/svg11.dtd">
<!-- Generated by graphviz version 2.40.1 (20161225.0304)
 -->
<!-- Title: py&#45;psycopg2@py36 Pages: 1 -->
<svg width="1223pt" height="334pt"
 viewBox="0.00 0.00 1222.71 333.73" xmlns="http://www.w3.org/2000/svg" xmlns:xlink="http://www.w3.org/1999/xlink">
<g id="graph0" class="graph" transform="scale(1 1) rotate(0) translate(4 329.7311)">
<title>py&#45;psycopg2@py36</title>
<polygon fill="#ffffff" stroke="transparent" points="-4,4 -4,-329.7311 1218.7082,-329.7311 1218.7082,4 -4,4"/>
<!-- databases/py&#45;psycopg2 -->
<g id="node1" class="node">
<title>databases/py&#45;psycopg2</title>
<ellipse fill="#e1e1e1" stroke="#000000" cx="90.9919" cy="-232" rx="90.9839" ry="18"/>
<text text-anchor="middle" x="90.9919" y="-228.3" font-family="Times,serif" font-size="14.00" fill="#737373">databases/py&#45;psycopg2</text>
</g>
<!-- devel/py&#45;setuptools@py36 -->
<g id="node2" class="node">
<title>devel/py&#45;setuptools@py36</title>
<ellipse fill="#e1e1e1" stroke="#000000" cx="334.3235" cy="-232" rx="105.0817" ry="18"/>
<text text-anchor="middle" x="334.3235" y="-228.3" font-family="Times,serif" font-size="14.00" fill="#737373">devel/py&#45;setuptools@py36</text>
</g>
<!-- databases/py&#45;psycopg2&#45;&gt;devel/py&#45;setuptools@py36 -->
<g id="edge1" class="edge">
<title>databases/py&#45;psycopg2&#45;&gt;devel/py&#45;setuptools@py36</title>
<path fill="none" stroke="#009999" d="M182.2919,-232C194.1972,-232 206.5169,-232 218.7541,-232"/>
<polygon fill="#009999" stroke="#009999" points="219.0031,-235.5001 229.0031,-232 219.003,-228.5001 219.0031,-235.5001"/>
</g>
<!-- lang/python36 -->
<g id="node3" class="node">
<title>lang/python36</title>
<ellipse fill="#e1e1e1" stroke="#000000" cx="549.0577" cy="-278" rx="62.2891" ry="18"/>
<text text-anchor="middle" x="549.0577" y="-274.3" font-family="Times,serif" font-size="14.00" fill="#737373">lang/python36</text>
</g>
<!-- databases/py&#45;psycopg2&#45;&gt;lang/python36 -->
<g id="edge11" class="edge">
<title>databases/py&#45;psycopg2&#45;&gt;lang/python36</title>
<path fill="none" stroke="#009999" d="M148.1967,-246.0957C169.9223,-250.938 194.9739,-255.9119 217.9839,-259 306.4519,-270.873 409.1957,-275.3337 476.4748,-277.0054"/>
<polygon fill="#009999" stroke="#009999" points="476.4697,-280.5061 486.5489,-277.2414 476.6337,-273.5081 476.4697,-280.5061"/>
</g>
<!-- databases/postgresql95&#45;client -->
<g id="node10" class="node">
<title>databases/postgresql95&#45;client</title>
<ellipse fill="#e1e1e1" stroke="#000000" cx="334.3235" cy="-140" rx="116.1796" ry="18"/>
<text text-anchor="middle" x="334.3235" y="-136.3" font-family="Times,serif" font-size="14.00" fill="#737373">databases/postgresql95&#45;client</text>
</g>
<!-- databases/py&#45;psycopg2&#45;&gt;databases/postgresql95&#45;client -->
<g id="edge12" class="edge">
<title>databases/py&#45;psycopg2&#45;&gt;databases/postgresql95&#45;client</title>
<path fill="none" stroke="#009999" d="M133.3771,-215.9748C174.2248,-200.5309 236.19,-177.1028 280.5038,-160.3484"/>
<polygon fill="#009999" stroke="#009999" points="281.8421,-163.5843 289.958,-156.7739 279.3665,-157.0367 281.8421,-163.5843"/>
</g>
<!-- devel/py&#45;setuptools@py36&#45;&gt;lang/python36 -->
<g id="edge2" class="edge">
<title>devel/py&#45;setuptools@py36&#45;&gt;lang/python36</title>
<path fill="none" stroke="#009999" d="M400.2102,-246.1141C428.429,-252.1591 461.1653,-259.1718 488.7402,-265.0789"/>
<polygon fill="#009999" stroke="#009999" points="488.1366,-268.5289 498.6479,-267.2013 489.6029,-261.6842 488.1366,-268.5289"/>
</g>
<!-- devel/pkgconf -->
<g id="node4" class="node">
<title>devel/pkgconf</title>
<ellipse fill="#e1e1e1" stroke="#000000" cx="724.7953" cy="-224" rx="61.1893" ry="18"/>
<text text-anchor="middle" x="724.7953" y="-220.3" font-family="Times,serif" font-size="14.00" fill="#737373">devel/pkgconf</text>
</g>
<!-- lang/python36&#45;&gt;devel/pkgconf -->
<g id="edge3" class="edge">
<title>lang/python36&#45;&gt;devel/pkgconf</title>
<path fill="none" stroke="#009999" d="M592.0479,-264.7901C616.376,-257.3147 646.978,-247.9114 672.6671,-240.0177"/>
<polygon fill="#009999" stroke="#009999" points="673.718,-243.3564 682.2488,-237.0735 671.6619,-236.6652 673.718,-243.3564"/>
</g>
<!-- devel/gettext&#45;tools -->
<g id="node5" class="node">
<title>devel/gettext&#45;tools</title>
<ellipse fill="#e1e1e1" stroke="#000000" cx="724.7953" cy="-110" rx="77.1866" ry="18"/>
<text text-anchor="middle" x="724.7953" y="-106.3" font-family="Times,serif" font-size="14.00" fill="#737373">devel/gettext&#45;tools</text>
</g>
<!-- lang/python36&#45;&gt;devel/gettext&#45;tools -->
<g id="edge4" class="edge">
<title>lang/python36&#45;&gt;devel/gettext&#45;tools</title>
<path fill="none" stroke="#009999" d="M568.4207,-260.8346C581.6466,-248.4353 598.9687,-230.8022 611.4521,-213 632.2217,-183.3813 620.7704,-164.428 647.4521,-140 652.5195,-135.3606 658.384,-131.4086 664.5724,-128.0488"/>
<polygon fill="#009999" stroke="#009999" points="666.3633,-131.0695 673.8161,-123.5391 663.2939,-124.7783 666.3633,-131.0695"/>
</g>
<!-- devel/gettext&#45;runtime -->
<g id="node7" class="node">
<title>devel/gettext&#45;runtime</title>
<ellipse fill="#e1e1e1" stroke="#000000" cx="927.1805" cy="-64" rx="89.0842" ry="18"/>
<text text-anchor="middle" x="927.1805" y="-60.3" font-family="Times,serif" font-size="14.00" fill="#737373">devel/gettext&#45;runtime</text>
</g>
<!-- lang/python36&#45;&gt;devel/gettext&#45;runtime -->
<g id="edge10" class="edge">
<title>lang/python36&#45;&gt;devel/gettext&#45;runtime</title>
<path fill="none" stroke="#009999" d="M581.7829,-293.4023C632.8596,-314.9792 732.848,-347.1107 802.1384,-305 879.7695,-257.8204 911.3823,-145.0917 922.2672,-92.2463"/>
<polygon fill="#009999" stroke="#009999" points="925.744,-92.7039 924.2301,-82.2178 918.8743,-91.3593 925.744,-92.7039"/>
</g>
<!-- devel/libffi -->
<g id="node8" class="node">
<title>devel/libffi</title>
<ellipse fill="#e1e1e1" stroke="#000000" cx="724.7953" cy="-278" rx="50.0912" ry="18"/>
<text text-anchor="middle" x="724.7953" y="-274.3" font-family="Times,serif" font-size="14.00" fill="#737373">devel/libffi</text>
</g>
<!-- lang/python36&#45;&gt;devel/libffi -->
<g id="edge8" class="edge">
<title>lang/python36&#45;&gt;devel/libffi</title>
<path fill="none" stroke="#009999" d="M611.511,-278C628.6679,-278 647.2393,-278 664.2849,-278"/>
<polygon fill="#009999" stroke="#009999" points="664.6748,-281.5001 674.6748,-278 664.6748,-274.5001 664.6748,-281.5001"/>
</g>
<!-- devel/readline -->
<g id="node9" class="node">
<title>devel/readline</title>
<ellipse fill="#e1e1e1" stroke="#000000" cx="724.7953" cy="-167" rx="61.99" ry="18"/>
<text text-anchor="middle" x="724.7953" y="-163.3" font-family="Times,serif" font-size="14.00" fill="#737373">devel/readline</text>
</g>
<!-- lang/python36&#45;&gt;devel/readline -->
<g id="edge9" class="edge">
<title>lang/python36&#45;&gt;devel/readline</title>
<path fill="none" stroke="#009999" d="M566.6001,-260.5788C585.3299,-242.7296 616.5142,-215.1012 647.4521,-197 655.6634,-192.1958 664.7865,-187.8734 673.8043,-184.1042"/>
<polygon fill="#009999" stroke="#009999" points="675.1348,-187.3417 683.1209,-180.3794 672.5362,-180.8419 675.1348,-187.3417"/>
</g>
<!-- converters/libiconv -->
<g id="node6" class="node">
<title>converters/libiconv</title>
<ellipse fill="#e1e1e1" stroke="#000000" cx="1133.4654" cy="-64" rx="81.4863" ry="18"/>
<text text-anchor="middle" x="1133.4654" y="-60.3" font-family="Times,serif" font-size="14.00" fill="#737373">converters/libiconv</text>
</g>
<!-- devel/gettext&#45;tools&#45;&gt;converters/libiconv -->
<g id="edge5" class="edge">
<title>devel/gettext&#45;tools&#45;&gt;converters/libiconv</title>
<path fill="none" stroke="#009999" d="M801.8497,-108.3598C860.8052,-106.2884 943.9849,-101.602 1016.2226,-91 1034.1891,-88.3631 1053.4742,-84.4034 1071.1102,-80.3233"/>
<polygon fill="#009999" stroke="#009999" points="1072.3559,-83.6253 1081.281,-77.9163 1070.7437,-76.8135 1072.3559,-83.6253"/>
</g>
<!-- devel/gettext&#45;tools&#45;&gt;devel/gettext&#45;runtime -->
<g id="edge6" class="edge">
<title>devel/gettext&#45;tools&#45;&gt;devel/gettext&#45;runtime</title>
<path fill="none" stroke="#009999" d="M780.3656,-97.3695C804.3327,-91.922 832.6182,-85.493 857.932,-79.7395"/>
<polygon fill="#009999" stroke="#009999" points="858.863,-83.1172 867.8385,-77.4878 857.3115,-76.2913 858.863,-83.1172"/>
</g>
<!-- devel/gettext&#45;runtime&#45;&gt;converters/libiconv -->
<g id="edge7" class="edge">
<title>devel/gettext&#45;runtime&#45;&gt;converters/libiconv</title>
<path fill="none" stroke="#009999" d="M1016.4603,-64C1024.8983,-64 1033.4624,-64 1041.9211,-64"/>
<polygon fill="#009999" stroke="#009999" points="1042.171,-67.5001 1052.171,-64 1042.1709,-60.5001 1042.171,-67.5001"/>
</g>
<!-- databases/postgresql95&#45;client&#45;&gt;devel/pkgconf -->
<g id="edge13" class="edge">
<title>databases/postgresql95&#45;client&#45;&gt;devel/pkgconf</title>
<path fill="none" stroke="#009999" d="M362.222,-157.6096C391.8226,-175.2529 440.5887,-201.4063 486.6632,-213 541.816,-226.8781 606.3733,-229.0266 654.3472,-228.0392"/>
<polygon fill="#009999" stroke="#009999" points="654.7227,-231.5308 664.6293,-227.7746 654.5426,-224.5331 654.7227,-231.5308"/>
</g>
<!-- databases/postgresql95&#45;client&#45;&gt;devel/gettext&#45;tools -->
<g id="edge18" class="edge">
<title>databases/postgresql95&#45;client&#45;&gt;devel/gettext&#45;tools</title>
<path fill="none" stroke="#009999" d="M438.7062,-131.9803C502.1329,-127.1072 582.024,-120.9691 641.2508,-116.4187"/>
<polygon fill="#009999" stroke="#009999" points="641.6127,-119.9013 651.3151,-115.6455 641.0764,-112.9219 641.6127,-119.9013"/>
</g>
<!-- databases/postgresql95&#45;client&#45;&gt;devel/gettext&#45;runtime -->
<g id="edge21" class="edge">
<title>databases/postgresql95&#45;client&#45;&gt;devel/gettext&#45;runtime</title>
<path fill="none" stroke="#009999" d="M402.3974,-125.328C465.5993,-112.2503 562.4624,-93.5879 647.4521,-83 707.6913,-75.4955 775.6244,-70.7936 829.459,-67.9447"/>
<polygon fill="#009999" stroke="#009999" points="829.88,-71.4277 839.6863,-67.4167 829.5191,-64.437 829.88,-71.4277"/>
</g>
<!-- databases/postgresql95&#45;client&#45;&gt;devel/readline -->
<g id="edge20" class="edge">
<title>databases/postgresql95&#45;client&#45;&gt;devel/readline</title>
<path fill="none" stroke="#009999" d="M440.9222,-147.2581C492.4411,-150.7788 555.1643,-155.084 611.4521,-159 625.3873,-159.9695 640.2856,-161.0147 654.5479,-162.0197"/>
<polygon fill="#009999" stroke="#009999" points="654.5763,-165.5303 664.7978,-162.7426 655.0688,-158.5476 654.5763,-165.5303"/>
</g>
<!-- devel/gmake -->
<g id="node11" class="node">
<title>devel/gmake</title>
<ellipse fill="#e1e1e1" stroke="#000000" cx="549.0577" cy="-18" rx="55.7903" ry="18"/>
<text text-anchor="middle" x="549.0577" y="-14.3" font-family="Times,serif" font-size="14.00" fill="#737373">devel/gmake</text>
</g>
<!-- databases/postgresql95&#45;client&#45;&gt;devel/gmake -->
<g id="edge14" class="edge">
<title>databases/postgresql95&#45;client&#45;&gt;devel/gmake</title>
<path fill="none" stroke="#009999" d="M362.9489,-122.3957C393.3476,-103.8648 442.9464,-74.096 486.6632,-50 493.8598,-46.0333 501.5992,-41.9337 509.0948,-38.0471"/>
<polygon fill="#009999" stroke="#009999" points="511.106,-40.9486 518.3996,-33.2639 507.9057,-34.723 511.106,-40.9486"/>
</g>
<!-- lang/perl5.24 -->
<g id="node12" class="node">
<title>lang/perl5.24</title>
<ellipse fill="#e1e1e1" stroke="#000000" cx="549.0577" cy="-186" rx="57.6901" ry="18"/>
<text text-anchor="middle" x="549.0577" y="-182.3" font-family="Times,serif" font-size="14.00" fill="#737373">lang/perl5.24</text>
</g>
<!-- databases/postgresql95&#45;client&#45;&gt;lang/perl5.24 -->
<g id="edge19" class="edge">
<title>databases/postgresql95&#45;client&#45;&gt;lang/perl5.24</title>
<path fill="none" stroke="#009999" d="M402.5618,-154.6179C431.2181,-160.7566 464.1825,-167.8182 491.5761,-173.6864"/>
<polygon fill="#009999" stroke="#009999" points="490.8868,-177.1181 501.3981,-175.7904 492.3531,-170.2733 490.8868,-177.1181"/>
</g>
<!-- devel/gmake&#45;&gt;devel/gettext&#45;tools -->
<g id="edge15" class="edge">
<title>devel/gmake&#45;&gt;devel/gettext&#45;tools</title>
<path fill="none" stroke="#009999" d="M578.4722,-33.3987C607.3753,-48.5297 651.7212,-71.7452 684.019,-88.6533"/>
<polygon fill="#009999" stroke="#009999" points="682.7222,-91.925 693.2049,-93.4622 685.9688,-85.7234 682.7222,-91.925"/>
</g>
<!-- devel/gmake&#45;&gt;converters/libiconv -->
<g id="edge16" class="edge">
<title>devel/gmake&#45;&gt;converters/libiconv</title>
<path fill="none" stroke="#009999" d="M605.0945,-16.8268C693.0922,-15.7593 868.8586,-16.7573 1016.2226,-37 1034.5554,-39.5183 1054.2408,-43.5272 1072.1471,-47.6934"/>
<polygon fill="#009999" stroke="#009999" points="1071.3531,-51.1021 1081.892,-50.0157 1072.9758,-44.2928 1071.3531,-51.1021"/>
</g>
<!-- devel/gmake&#45;&gt;devel/gettext&#45;runtime -->
<g id="edge17" class="edge">
<title>devel/gmake&#45;&gt;devel/gettext&#45;runtime</title>
<path fill="none" stroke="#009999" d="M601.634,-24.3961C663.4593,-31.9174 766.9795,-44.511 840.6808,-53.477"/>
<polygon fill="#009999" stroke="#009999" points="840.5255,-56.9838 850.875,-54.7172 841.3709,-50.0351 840.5255,-56.9838"/>
</g>
</g>
</svg>
