<?xml version="1.0" encoding="UTF-8" standalone="no"?>
<!DOCTYPE svg PUBLIC "-//W3C//DTD SVG 1.1//EN"
 "http://www.w3.org/Graphics/SVG/1.1/DTD/svg11.dtd">
<!-- Generated by graphviz version 2.40.1 (20161225.0304)
 -->
<!-- Title: python36 Pages: 1 -->
<svg width="538pt" height="262pt"
 viewBox="0.00 0.00 537.56 262.00" xmlns="http://www.w3.org/2000/svg" xmlns:xlink="http://www.w3.org/1999/xlink">
<g id="graph0" class="graph" transform="scale(1 1) rotate(0) translate(4 258)">
<title>python36</title>
<polygon fill="#ffffff" stroke="transparent" points="-4,4 -4,-258 533.5594,-258 533.5594,4 -4,4"/>
<!-- devel/pkgconf -->
<g id="node1" class="node">
<title>devel/pkgconf</title>
<g id="a_node1"><a xlink:href="https://www.freshports.org/devel/pkgconf" xlink:title="devel/pkgconf">
<ellipse fill="#e1e1e1" stroke="#000000" cx="238.1321" cy="-236" rx="61.1893" ry="18"/>
<text text-anchor="middle" x="238.1321" y="-232.3" font-family="Times,serif" font-size="14.00" fill="#737373">devel/pkgconf</text>
</a>
</g>
</g>
<!-- lang/python36 -->
<g id="node2" class="node">
<title>lang/python36</title>
<ellipse fill="#e1e1e1" stroke="#000000" cx="62.3945" cy="-99" rx="62.2891" ry="18"/>
<text text-anchor="middle" x="62.3945" y="-95.3" font-family="Times,serif" font-size="14.00" fill="#737373">lang/python36</text>
</g>
<!-- lang/python36&#45;&gt;devel/pkgconf -->
<g id="edge1" class="edge">
<title>lang/python36&#45;&gt;devel/pkgconf</title>
<path fill="none" stroke="#009999" d="M73.9444,-116.7689C90.4696,-140.8786 123.0652,-183.8265 160.7889,-209 167.3602,-213.3851 174.7211,-217.1384 182.2197,-220.3276"/>
<polygon fill="#009999" stroke="#009999" points="181.1551,-223.6698 191.7424,-224.0708 183.716,-217.155 181.1551,-223.6698"/>
</g>
<!-- devel/gettext&#45;tools -->
<g id="node3" class="node">
<title>devel/gettext&#45;tools</title>
<g id="a_node3"><a xlink:href="https://www.freshports.org/devel/gettext-tools" xlink:title="devel/gettext&#45;tools">
<ellipse fill="#e1e1e1" stroke="#000000" cx="238.1321" cy="-182" rx="77.1866" ry="18"/>
<text text-anchor="middle" x="238.1321" y="-178.3" font-family="Times,serif" font-size="14.00" fill="#737373">devel/gettext&#45;tools</text>
</a>
</g>
</g>
<!-- lang/python36&#45;&gt;devel/gettext&#45;tools -->
<g id="edge2" class="edge">
<title>lang/python36&#45;&gt;devel/gettext&#45;tools</title>
<path fill="none" stroke="#009999" d="M91.7744,-115.0702C111.1612,-125.4644 137.2358,-139.0481 160.7889,-150 169.8809,-154.2276 179.6904,-158.501 189.1703,-162.4883"/>
<polygon fill="#009999" stroke="#009999" points="187.924,-165.7606 198.5014,-166.368 190.6115,-159.297 187.924,-165.7606"/>
</g>
<!-- devel/gettext&#45;runtime -->
<g id="node5" class="node">
<title>devel/gettext&#45;runtime</title>
<g id="a_node5"><a xlink:href="https://www.freshports.org/devel/gettext-runtime" xlink:title="devel/gettext&#45;runtime">
<ellipse fill="#e1e1e1" stroke="#000000" cx="440.5173" cy="-127" rx="89.0842" ry="18"/>
<text text-anchor="middle" x="440.5173" y="-123.3" font-family="Times,serif" font-size="14.00" fill="#737373">devel/gettext&#45;runtime</text>
</a>
</g>
</g>
<!-- lang/python36&#45;&gt;devel/gettext&#45;runtime -->
<g id="edge7" class="edge">
<title>lang/python36&#45;&gt;devel/gettext&#45;runtime</title>
<path fill="none" stroke="#009999" d="M124.8338,-98.4573C188.8108,-101.2674 288.5893,-108.4879 358.8122,-115.279"/>
<polygon fill="#009999" stroke="#009999" points="358.6559,-118.7805 368.9508,-116.2773 359.3419,-111.8142 358.6559,-118.7805"/>
</g>
<!-- lang/python36&#45;&gt;devel/gettext&#45;runtime -->
<g id="edge10" class="edge">
<title>lang/python36&#45;&gt;devel/gettext&#45;runtime</title>
<path fill="none" stroke="#990000" d="M116.9729,-107.9559C175.3552,-114.2698 269.2108,-121.5914 340.8359,-125.6477"/>
<polygon fill="#990000" stroke="#990000" points="341.0575,-129.1652 351.2353,-126.2219 341.4436,-122.1758 341.0575,-129.1652"/>
</g>
<!-- devel/libffi -->
<g id="node6" class="node">
<title>devel/libffi</title>
<g id="a_node6"><a xlink:href="https://www.freshports.org/devel/libffi" xlink:title="devel/libffi">
<ellipse fill="#e1e1e1" stroke="#000000" cx="238.1321" cy="-72" rx="50.0912" ry="18"/>
<text text-anchor="middle" x="238.1321" y="-68.3" font-family="Times,serif" font-size="14.00" fill="#737373">devel/libffi</text>
</a>
</g>
</g>
<!-- lang/python36&#45;&gt;devel/libffi -->
<g id="edge5" class="edge">
<title>lang/python36&#45;&gt;devel/libffi</title>
<path fill="none" stroke="#009999" d="M106.7405,-86.2344C128.3525,-82.051 154.6641,-77.8458 178.0489,-74.7904"/>
<polygon fill="#009999" stroke="#009999" points="178.7278,-78.2327 188.2135,-73.5133 177.8551,-71.2873 178.7278,-78.2327"/>
</g>
<!-- lang/python36&#45;&gt;devel/libffi -->
<g id="edge8" class="edge">
<title>lang/python36&#45;&gt;devel/libffi</title>
<path fill="none" stroke="#990000" d="M124.353,-95.9629C145.8255,-93.1202 169.5651,-89.3463 189.7802,-85.5312"/>
<polygon fill="#990000" stroke="#990000" points="190.5508,-88.9469 199.6964,-83.5982 189.2114,-82.0762 190.5508,-88.9469"/>
</g>
<!-- devel/readline -->
<g id="node7" class="node">
<title>devel/readline</title>
<g id="a_node7"><a xlink:href="https://www.freshports.org/devel/readline" xlink:title="devel/readline">
<ellipse fill="#e1e1e1" stroke="#000000" cx="238.1321" cy="-18" rx="61.99" ry="18"/>
<text text-anchor="middle" x="238.1321" y="-14.3" font-family="Times,serif" font-size="14.00" fill="#737373">devel/readline</text>
</a>
</g>
</g>
<!-- lang/python36&#45;&gt;devel/readline -->
<g id="edge6" class="edge">
<title>lang/python36&#45;&gt;devel/readline</title>
<path fill="none" stroke="#009999" d="M80.0727,-81.4928C99.4248,-67.5043 131.5952,-48.9986 160.7889,-36 165.1861,-34.0421 169.7724,-32.1301 174.421,-30.3067"/>
<polygon fill="#009999" stroke="#009999" points="175.8807,-33.4971 184.0096,-26.7022 173.4176,-26.9448 175.8807,-33.4971"/>
</g>
<!-- lang/python36&#45;&gt;devel/readline -->
<g id="edge9" class="edge">
<title>lang/python36&#45;&gt;devel/readline</title>
<path fill="none" stroke="#990000" d="M99.963,-84.626C118.0013,-75.1435 140.1397,-63.1941 160.7889,-54 173.7308,-48.2376 188.3109,-42.8718 201.295,-37.9361"/>
<polygon fill="#990000" stroke="#990000" points="202.7895,-41.111 210.8594,-34.2462 200.2698,-34.5802 202.7895,-41.111"/>
</g>
<!-- converters/libiconv -->
<g id="node4" class="node">
<title>converters/libiconv</title>
<g id="a_node4"><a xlink:href="https://www.freshports.org/converters/libiconv" xlink:title="converters/libiconv">
<ellipse fill="#e1e1e1" stroke="#000000" cx="440.5173" cy="-182" rx="81.4863" ry="18"/>
<text text-anchor="middle" x="440.5173" y="-178.3" font-family="Times,serif" font-size="14.00" fill="#737373">converters/libiconv</text>
</a>
</g>
</g>
<!-- devel/gettext&#45;tools&#45;&gt;converters/libiconv -->
<g id="edge3" class="edge">
<title>devel/gettext&#45;tools&#45;&gt;converters/libiconv</title>
<path fill="none" stroke="#009999" d="M315.5115,-182C326.4474,-182 337.7766,-182 348.9479,-182"/>
<polygon fill="#009999" stroke="#009999" points="349.1472,-185.5001 359.1471,-182 349.1471,-178.5001 349.1472,-185.5001"/>
</g>
<!-- devel/gettext&#45;tools&#45;&gt;devel/gettext&#45;runtime -->
<g id="edge4" class="edge">
<title>devel/gettext&#45;tools&#45;&gt;devel/gettext&#45;runtime</title>
<path fill="none" stroke="#009999" d="M288.6803,-168.2631C315.4917,-160.9768 348.6939,-151.9538 377.2067,-144.2052"/>
<polygon fill="#009999" stroke="#009999" points="378.3461,-147.5226 387.0782,-141.5225 376.5103,-140.7676 378.3461,-147.5226"/>
</g>
</g>
</svg>
