<?xml version="1.0" encoding="UTF-8" standalone="no"?>
<!DOCTYPE svg PUBLIC "-//W3C//DTD SVG 1.1//EN"
 "http://www.w3.org/Graphics/SVG/1.1/DTD/svg11.dtd">
<!-- Generated by graphviz version 2.40.1 (20161225.0304)
 -->
<!-- Title: sfcgal Pages: 1 -->
<svg width="749pt" height="1259pt"
 viewBox="0.00 0.00 749.04 1259.00" xmlns="http://www.w3.org/2000/svg" xmlns:xlink="http://www.w3.org/1999/xlink">
<g id="graph0" class="graph" transform="scale(1 1) rotate(0) translate(4 1255)">
<title>sfcgal</title>
<polygon fill="#ffffff" stroke="transparent" points="-4,4 -4,-1255 745.0438,-1255 745.0438,4 -4,4"/>
<!-- devel/cmake -->
<g id="node1" class="node">
<title>devel/cmake</title>
<g id="a_node1"><a xlink:href="https://www.freshports.org/devel/cmake" xlink:title="devel/cmake">
<ellipse fill="#e1e1e1" stroke="#000000" cx="397.6211" cy="-1044" rx="55.7903" ry="18"/>
<text text-anchor="middle" x="397.6211" y="-1040.3" font-family="Times,serif" font-size="14.00" fill="#737373">devel/cmake</text>
</a>
</g>
</g>
<!-- textproc/py&#45;sphinx@py27 -->
<g id="node3" class="node">
<title>textproc/py&#45;sphinx@py27</title>
<g id="a_node3"><a xlink:href="https://www.freshports.org/textproc/py-sphinx" xlink:title="textproc/py&#45;sphinx@py27">
<ellipse fill="#e1e1e1" stroke="#000000" cx="636.4031" cy="-1071" rx="104.7816" ry="18"/>
<text text-anchor="middle" x="636.4031" y="-1067.3" font-family="Times,serif" font-size="14.00" fill="#737373">textproc/py&#45;sphinx@py27</text>
</a>
</g>
</g>
<!-- devel/cmake&#45;&gt;textproc/py&#45;sphinx@py27 -->
<g id="edge2" class="edge">
<title>devel/cmake&#45;&gt;textproc/py&#45;sphinx@py27</title>
<path fill="none" stroke="#009999" d="M450.6146,-1049.9922C476.5375,-1052.9234 508.5838,-1056.547 538.7205,-1059.9547"/>
<polygon fill="#009999" stroke="#009999" points="538.526,-1063.4549 548.856,-1061.1007 539.3126,-1056.4992 538.526,-1063.4549"/>
</g>
<!-- ftp/curl -->
<g id="node4" class="node">
<title>ftp/curl</title>
<g id="a_node4"><a xlink:href="https://www.freshports.org/ftp/curl" xlink:title="ftp/curl">
<ellipse fill="#e1e1e1" stroke="#000000" cx="636.4031" cy="-1017" rx="37.8943" ry="18"/>
<text text-anchor="middle" x="636.4031" y="-1013.3" font-family="Times,serif" font-size="14.00" fill="#737373">ftp/curl</text>
</a>
</g>
</g>
<!-- devel/cmake&#45;&gt;ftp/curl -->
<g id="edge3" class="edge">
<title>devel/cmake&#45;&gt;ftp/curl</title>
<path fill="none" stroke="#009999" d="M450.6146,-1038.0078C492.1983,-1033.3058 549.5391,-1026.8221 589.4778,-1022.306"/>
<polygon fill="#009999" stroke="#009999" points="589.9468,-1025.7754 599.4902,-1021.1739 589.1603,-1018.8197 589.9468,-1025.7754"/>
</g>
<!-- textproc/expat2 -->
<g id="node5" class="node">
<title>textproc/expat2</title>
<g id="a_node5"><a xlink:href="https://www.freshports.org/textproc/expat2" xlink:title="textproc/expat2">
<ellipse fill="#e1e1e1" stroke="#000000" cx="636.4031" cy="-963" rx="67.6881" ry="18"/>
<text text-anchor="middle" x="636.4031" y="-959.3" font-family="Times,serif" font-size="14.00" fill="#737373">textproc/expat2</text>
</a>
</g>
</g>
<!-- devel/cmake&#45;&gt;textproc/expat2 -->
<g id="edge4" class="edge">
<title>devel/cmake&#45;&gt;textproc/expat2</title>
<path fill="none" stroke="#009999" d="M445.8589,-1034.5555C462.1874,-1030.37 480.2138,-1024.626 495.7624,-1017 513.7189,-1008.193 513.7362,-998.6634 531.7624,-990 543.8228,-984.2037 557.285,-979.5415 570.4318,-975.8313"/>
<polygon fill="#009999" stroke="#009999" points="571.6336,-979.1332 580.3954,-973.1766 569.8313,-972.3692 571.6336,-979.1332"/>
</g>
<!-- devel/jsoncpp -->
<g id="node6" class="node">
<title>devel/jsoncpp</title>
<g id="a_node6"><a xlink:href="https://www.freshports.org/devel/jsoncpp" xlink:title="devel/jsoncpp">
<ellipse fill="#e1e1e1" stroke="#000000" cx="636.4031" cy="-909" rx="59.5901" ry="18"/>
<text text-anchor="middle" x="636.4031" y="-905.3" font-family="Times,serif" font-size="14.00" fill="#737373">devel/jsoncpp</text>
</a>
</g>
</g>
<!-- devel/cmake&#45;&gt;devel/jsoncpp -->
<g id="edge5" class="edge">
<title>devel/cmake&#45;&gt;devel/jsoncpp</title>
<path fill="none" stroke="#009999" d="M450.6565,-1038.2634C466.5941,-1034.3525 483.1708,-1027.8343 495.7624,-1017 525.625,-991.3051 501.6958,-961.4558 531.7624,-936 542.4205,-926.9763 555.7271,-920.9174 569.2409,-916.8622"/>
<polygon fill="#009999" stroke="#009999" points="570.3155,-920.1982 579.0828,-914.2497 568.5196,-913.4325 570.3155,-920.1982"/>
</g>
<!-- devel/libuv -->
<g id="node7" class="node">
<title>devel/libuv</title>
<g id="a_node7"><a xlink:href="https://www.freshports.org/devel/libuv" xlink:title="devel/libuv">
<ellipse fill="#e1e1e1" stroke="#000000" cx="636.4031" cy="-1233" rx="50.0912" ry="18"/>
<text text-anchor="middle" x="636.4031" y="-1229.3" font-family="Times,serif" font-size="14.00" fill="#737373">devel/libuv</text>
</a>
</g>
</g>
<!-- devel/cmake&#45;&gt;devel/libuv -->
<g id="edge6" class="edge">
<title>devel/cmake&#45;&gt;devel/libuv</title>
<path fill="none" stroke="#009999" d="M407.1858,-1061.7395C426.2398,-1095.3264 472.2728,-1168.2159 531.7624,-1206 545.8614,-1214.9548 562.8086,-1220.9466 578.9182,-1224.9534"/>
<polygon fill="#009999" stroke="#009999" points="578.2806,-1228.3976 588.8075,-1227.2003 579.8316,-1221.5716 578.2806,-1228.3976"/>
</g>
<!-- security/rhash -->
<g id="node8" class="node">
<title>security/rhash</title>
<g id="a_node8"><a xlink:href="https://www.freshports.org/security/rhash" xlink:title="security/rhash">
<ellipse fill="#e1e1e1" stroke="#000000" cx="636.4031" cy="-1179" rx="61.99" ry="18"/>
<text text-anchor="middle" x="636.4031" y="-1175.3" font-family="Times,serif" font-size="14.00" fill="#737373">security/rhash</text>
</a>
</g>
</g>
<!-- devel/cmake&#45;&gt;security/rhash -->
<g id="edge7" class="edge">
<title>devel/cmake&#45;&gt;security/rhash</title>
<path fill="none" stroke="#009999" d="M414.1447,-1061.3198C437.9263,-1085.2384 484.1985,-1128.1264 531.7624,-1152 544.5134,-1158.4 558.9221,-1163.3802 572.8786,-1167.2194"/>
<polygon fill="#009999" stroke="#009999" points="572.3734,-1170.7038 582.9311,-1169.8172 574.1249,-1163.9264 572.3734,-1170.7038"/>
</g>
<!-- archivers/libarchive -->
<g id="node9" class="node">
<title>archivers/libarchive</title>
<g id="a_node9"><a xlink:href="https://www.freshports.org/archivers/libarchive" xlink:title="archivers/libarchive">
<ellipse fill="#e1e1e1" stroke="#000000" cx="636.4031" cy="-1125" rx="83.3857" ry="18"/>
<text text-anchor="middle" x="636.4031" y="-1121.3" font-family="Times,serif" font-size="14.00" fill="#737373">archivers/libarchive</text>
</a>
</g>
</g>
<!-- devel/cmake&#45;&gt;archivers/libarchive -->
<g id="edge8" class="edge">
<title>devel/cmake&#45;&gt;archivers/libarchive</title>
<path fill="none" stroke="#009999" d="M430.527,-1058.6459C457.4128,-1070.2708 496.5852,-1086.4357 531.7624,-1098 543.8572,-1101.9761 556.8926,-1105.7414 569.52,-1109.1284"/>
<polygon fill="#009999" stroke="#009999" points="568.9724,-1112.6032 579.5336,-1111.7603 570.7518,-1105.8332 568.9724,-1112.6032"/>
</g>
<!-- databases/sfcgal -->
<g id="node2" class="node">
<title>databases/sfcgal</title>
<ellipse fill="#e1e1e1" stroke="#000000" cx="67.594" cy="-436" rx="67.6881" ry="18"/>
<text text-anchor="middle" x="67.594" y="-432.3" font-family="Times,serif" font-size="14.00" fill="#737373">databases/sfcgal</text>
</g>
<!-- databases/sfcgal&#45;&gt;devel/cmake -->
<g id="edge1" class="edge">
<title>databases/sfcgal&#45;&gt;devel/cmake</title>
<path fill="none" stroke="#009999" d="M70.63,-454.3589C80.2811,-510.2174 113.091,-682.3329 171.188,-814 214.2736,-911.6463 213.7347,-953.4474 299.4798,-1017 310.1709,-1024.924 323.0643,-1030.5224 335.9393,-1034.4779"/>
<polygon fill="#009999" stroke="#009999" points="335.1731,-1037.8974 345.7445,-1037.1936 337.0416,-1031.1513 335.1731,-1037.8974"/>
</g>
<!-- devel/ninja -->
<g id="node10" class="node">
<title>devel/ninja</title>
<g id="a_node10"><a xlink:href="https://www.freshports.org/devel/ninja" xlink:title="devel/ninja">
<ellipse fill="#e1e1e1" stroke="#000000" cx="397.6211" cy="-990" rx="50.8918" ry="18"/>
<text text-anchor="middle" x="397.6211" y="-986.3" font-family="Times,serif" font-size="14.00" fill="#737373">devel/ninja</text>
</a>
</g>
</g>
<!-- databases/sfcgal&#45;&gt;devel/ninja -->
<g id="edge9" class="edge">
<title>databases/sfcgal&#45;&gt;devel/ninja</title>
<path fill="none" stroke="#009999" d="M74.5274,-454.1999C108.4126,-542.7799 256.6905,-926.0442 299.4798,-963 310.5635,-972.5726 324.7562,-978.777 338.8835,-982.7907"/>
<polygon fill="#009999" stroke="#009999" points="338.0632,-986.1933 348.6145,-985.2339 339.7678,-979.404 338.0632,-986.1933"/>
</g>
<!-- math/cgal -->
<g id="node12" class="node">
<title>math/cgal</title>
<g id="a_node12"><a xlink:href="https://www.freshports.org/math/cgal" xlink:title="math/cgal">
<ellipse fill="#e1e1e1" stroke="#000000" cx="217.3339" cy="-504" rx="46.2923" ry="18"/>
<text text-anchor="middle" x="217.3339" y="-500.3" font-family="Times,serif" font-size="14.00" fill="#737373">math/cgal</text>
</a>
</g>
</g>
<!-- databases/sfcgal&#45;&gt;math/cgal -->
<g id="edge11" class="edge">
<title>databases/sfcgal&#45;&gt;math/cgal</title>
<path fill="none" stroke="#009999" d="M101.9474,-451.6006C124.5622,-461.8704 154.2346,-475.3453 177.826,-486.0586"/>
<polygon fill="#009999" stroke="#009999" points="176.6441,-489.3659 187.1965,-490.314 179.5385,-482.9923 176.6441,-489.3659"/>
</g>
<!-- devel/boost&#45;libs -->
<g id="node21" class="node">
<title>devel/boost&#45;libs</title>
<g id="a_node21"><a xlink:href="https://www.freshports.org/devel/boost-libs" xlink:title="devel/boost&#45;libs">
<ellipse fill="#e1e1e1" stroke="#000000" cx="397.6211" cy="-126" rx="67.6881" ry="18"/>
<text text-anchor="middle" x="397.6211" y="-122.3" font-family="Times,serif" font-size="14.00" fill="#737373">devel/boost&#45;libs</text>
</a>
</g>
</g>
<!-- databases/sfcgal&#45;&gt;devel/boost&#45;libs -->
<g id="edge32" class="edge">
<title>databases/sfcgal&#45;&gt;devel/boost&#45;libs</title>
<path fill="none" stroke="#009999" d="M103.1966,-420.6161C147.6647,-399.5319 222.8314,-357.389 263.4798,-298 300.984,-243.2048 253.1206,-200.5385 299.4798,-153 306.7258,-145.5697 315.8124,-140.1276 325.5138,-136.1525"/>
<polygon fill="#009999" stroke="#009999" points="326.7256,-139.4363 334.9635,-132.7739 324.3689,-132.8449 326.7256,-139.4363"/>
</g>
<!-- math/mpfr -->
<g id="node22" class="node">
<title>math/mpfr</title>
<g id="a_node22"><a xlink:href="https://www.freshports.org/math/mpfr" xlink:title="math/mpfr">
<ellipse fill="#e1e1e1" stroke="#000000" cx="397.6211" cy="-72" rx="50.0912" ry="18"/>
<text text-anchor="middle" x="397.6211" y="-68.3" font-family="Times,serif" font-size="14.00" fill="#737373">math/mpfr</text>
</a>
</g>
</g>
<!-- databases/sfcgal&#45;&gt;math/mpfr -->
<g id="edge34" class="edge">
<title>databases/sfcgal&#45;&gt;math/mpfr</title>
<path fill="none" stroke="#009999" d="M74.5898,-418.0918C97.5409,-361.7532 176.2132,-186.6835 299.4798,-99 311.5308,-90.4278 326.1907,-84.5747 340.466,-80.5792"/>
<polygon fill="#009999" stroke="#009999" points="341.4172,-83.9489 350.2507,-78.0992 339.6973,-77.1634 341.4172,-83.9489"/>
</g>
<!-- math/gmp -->
<g id="node23" class="node">
<title>math/gmp</title>
<g id="a_node23"><a xlink:href="https://www.freshports.org/math/gmp" xlink:title="math/gmp">
<ellipse fill="#e1e1e1" stroke="#000000" cx="397.6211" cy="-18" rx="48.1917" ry="18"/>
<text text-anchor="middle" x="397.6211" y="-14.3" font-family="Times,serif" font-size="14.00" fill="#737373">math/gmp</text>
</a>
</g>
</g>
<!-- databases/sfcgal&#45;&gt;math/gmp -->
<g id="edge33" class="edge">
<title>databases/sfcgal&#45;&gt;math/gmp</title>
<path fill="none" stroke="#009999" d="M69.6452,-417.9542C76.1528,-367.6617 100.2686,-223.5504 171.188,-131 214.4936,-74.4859 293.7096,-44.2399 346.0175,-29.6517"/>
<polygon fill="#009999" stroke="#009999" points="347.0329,-33.0031 355.779,-27.0234 345.2128,-26.2438 347.0329,-33.0031"/>
</g>
<!-- lang/python27 -->
<g id="node11" class="node">
<title>lang/python27</title>
<g id="a_node11"><a xlink:href="https://www.freshports.org/lang/python27" xlink:title="lang/python27">
<ellipse fill="#e1e1e1" stroke="#000000" cx="636.4031" cy="-855" rx="62.2891" ry="18"/>
<text text-anchor="middle" x="636.4031" y="-851.3" font-family="Times,serif" font-size="14.00" fill="#737373">lang/python27</text>
</a>
</g>
</g>
<!-- devel/ninja&#45;&gt;lang/python27 -->
<g id="edge10" class="edge">
<title>devel/ninja&#45;&gt;lang/python27</title>
<path fill="none" stroke="#009999" d="M446.6041,-985.2064C463.7436,-981.4307 482.0991,-974.7564 495.7624,-963 525.625,-937.3051 501.6958,-907.4558 531.7624,-882 541.9177,-873.402 554.4774,-867.4957 567.3299,-863.4496"/>
<polygon fill="#009999" stroke="#009999" points="568.487,-866.7606 577.1803,-860.7044 566.6077,-860.0176 568.487,-866.7606"/>
</g>
<!-- math/cgal&#45;&gt;devel/cmake -->
<g id="edge13" class="edge">
<title>math/cgal&#45;&gt;devel/cmake</title>
<path fill="none" stroke="#009999" d="M219.0809,-522.2077C227.5727,-609.1132 265.5119,-979.0857 299.4798,-1017 308.3126,-1026.859 320.3789,-1033.2601 333.0302,-1037.3828"/>
<polygon fill="#009999" stroke="#009999" points="332.2016,-1040.7853 342.7749,-1040.1109 334.0887,-1034.0445 332.2016,-1040.7853"/>
</g>
<!-- math/cgal&#45;&gt;devel/ninja -->
<g id="edge14" class="edge">
<title>math/cgal&#45;&gt;devel/ninja</title>
<path fill="none" stroke="#009999" d="M220.6905,-522.0185C228.3785,-563.3564 247.8083,-668.2105 263.4798,-756 279.89,-847.9277 236.7035,-893.8687 299.4798,-963 309.4217,-973.9484 323.3516,-980.624 337.5995,-984.6504"/>
<polygon fill="#009999" stroke="#009999" points="336.9269,-988.0885 347.4692,-987.0346 338.5707,-981.2843 336.9269,-988.0885"/>
</g>
<!-- math/ntl -->
<g id="node13" class="node">
<title>math/ntl</title>
<g id="a_node13"><a xlink:href="https://www.freshports.org/math/ntl" xlink:title="math/ntl">
<ellipse fill="#e1e1e1" stroke="#000000" cx="397.6211" cy="-936" rx="42.4939" ry="18"/>
<text text-anchor="middle" x="397.6211" y="-932.3" font-family="Times,serif" font-size="14.00" fill="#737373">math/ntl</text>
</a>
</g>
</g>
<!-- math/cgal&#45;&gt;math/ntl -->
<g id="edge12" class="edge">
<title>math/cgal&#45;&gt;math/ntl</title>
<path fill="none" stroke="#009999" d="M220.7368,-522.0901C235.3876,-599.8001 292.655,-901.6919 299.4798,-909 311.266,-921.6207 328.354,-928.5404 344.9789,-932.2726"/>
<polygon fill="#009999" stroke="#009999" points="344.743,-935.7899 355.219,-934.2069 346.0424,-928.9115 344.743,-935.7899"/>
</g>
<!-- math/eigen3 -->
<g id="node14" class="node">
<title>math/eigen3</title>
<g id="a_node14"><a xlink:href="https://www.freshports.org/math/eigen3" xlink:title="math/eigen3">
<ellipse fill="#e1e1e1" stroke="#000000" cx="397.6211" cy="-882" rx="55.7903" ry="18"/>
<text text-anchor="middle" x="397.6211" y="-878.3" font-family="Times,serif" font-size="14.00" fill="#737373">math/eigen3</text>
</a>
</g>
</g>
<!-- math/cgal&#45;&gt;math/eigen3 -->
<g id="edge15" class="edge">
<title>math/cgal&#45;&gt;math/eigen3</title>
<path fill="none" stroke="#009999" d="M220.497,-522.3296C232.496,-590.9914 275.7228,-830.3084 299.4798,-855 308.6575,-864.5388 320.8669,-870.807 333.548,-874.9021"/>
<polygon fill="#009999" stroke="#009999" points="332.7217,-878.3052 343.2949,-877.6281 334.6072,-871.5639 332.7217,-878.3052"/>
</g>
<!-- graphics/mesa&#45;libs -->
<g id="node15" class="node">
<title>graphics/mesa&#45;libs</title>
<g id="a_node15"><a xlink:href="https://www.freshports.org/graphics/mesa-libs" xlink:title="graphics/mesa&#45;libs">
<ellipse fill="#e1e1e1" stroke="#000000" cx="397.6211" cy="-828" rx="77.1866" ry="18"/>
<text text-anchor="middle" x="397.6211" y="-824.3" font-family="Times,serif" font-size="14.00" fill="#737373">graphics/mesa&#45;libs</text>
</a>
</g>
</g>
<!-- math/cgal&#45;&gt;graphics/mesa&#45;libs -->
<g id="edge16" class="edge">
<title>math/cgal&#45;&gt;graphics/mesa&#45;libs</title>
<path fill="none" stroke="#009999" d="M219.9709,-522.0932C228.7863,-580.1865 258.975,-760.5506 299.4798,-801 305.5013,-807.0133 312.7302,-811.7197 320.4992,-815.398"/>
<polygon fill="#009999" stroke="#009999" points="319.249,-818.6685 329.8273,-819.2606 321.9271,-812.2011 319.249,-818.6685"/>
</g>
<!-- x11/glproto -->
<g id="node16" class="node">
<title>x11/glproto</title>
<g id="a_node16"><a xlink:href="https://www.freshports.org/x11/glproto" xlink:title="x11/glproto">
<ellipse fill="#e1e1e1" stroke="#000000" cx="397.6211" cy="-774" rx="51.9908" ry="18"/>
<text text-anchor="middle" x="397.6211" y="-770.3" font-family="Times,serif" font-size="14.00" fill="#737373">x11/glproto</text>
</a>
</g>
</g>
<!-- math/cgal&#45;&gt;x11/glproto -->
<g id="edge17" class="edge">
<title>math/cgal&#45;&gt;x11/glproto</title>
<path fill="none" stroke="#009999" d="M221.1227,-521.9699C232.1432,-572.6266 265.5598,-714.9769 299.4798,-747 309.8198,-756.7618 323.3562,-763.0544 337.0579,-767.0943"/>
<polygon fill="#009999" stroke="#009999" points="336.4642,-770.5554 347.0208,-769.6552 338.207,-763.7758 336.4642,-770.5554"/>
</g>
<!-- x11/dri2proto -->
<g id="node17" class="node">
<title>x11/dri2proto</title>
<g id="a_node17"><a xlink:href="https://www.freshports.org/x11/dri2proto" xlink:title="x11/dri2proto">
<ellipse fill="#e1e1e1" stroke="#000000" cx="397.6211" cy="-720" rx="60.3893" ry="18"/>
<text text-anchor="middle" x="397.6211" y="-716.3" font-family="Times,serif" font-size="14.00" fill="#737373">x11/dri2proto</text>
</a>
</g>
</g>
<!-- math/cgal&#45;&gt;x11/dri2proto -->
<g id="edge18" class="edge">
<title>math/cgal&#45;&gt;x11/dri2proto</title>
<path fill="none" stroke="#009999" d="M219.9292,-522.1291C226.2956,-559.7877 246.2422,-646.8102 299.4798,-693 308.6043,-700.9166 319.8537,-706.5305 331.4426,-710.5069"/>
<polygon fill="#009999" stroke="#009999" points="330.6323,-713.9186 341.2179,-713.4767 332.6671,-707.2209 330.6323,-713.9186"/>
</g>
<!-- x11/dri3proto -->
<g id="node18" class="node">
<title>x11/dri3proto</title>
<g id="a_node18"><a xlink:href="https://www.freshports.org/x11/dri3proto" xlink:title="x11/dri3proto">
<ellipse fill="#e1e1e1" stroke="#000000" cx="397.6211" cy="-666" rx="60.3893" ry="18"/>
<text text-anchor="middle" x="397.6211" y="-662.3" font-family="Times,serif" font-size="14.00" fill="#737373">x11/dri3proto</text>
</a>
</g>
</g>
<!-- math/cgal&#45;&gt;x11/dri3proto -->
<g id="edge19" class="edge">
<title>math/cgal&#45;&gt;x11/dri3proto</title>
<path fill="none" stroke="#009999" d="M223.2631,-521.8676C233.8372,-550.9275 258.7422,-608.2672 299.4798,-639 309.2337,-646.3584 320.8776,-651.7115 332.6793,-655.6058"/>
<polygon fill="#009999" stroke="#009999" points="332.0092,-659.0577 342.5917,-658.5459 333.9998,-652.3467 332.0092,-659.0577"/>
</g>
<!-- devel/qt5&#45;buildtools -->
<g id="node19" class="node">
<title>devel/qt5&#45;buildtools</title>
<g id="a_node19"><a xlink:href="https://www.freshports.org/devel/qt5-buildtools" xlink:title="devel/qt5&#45;buildtools">
<ellipse fill="#e1e1e1" stroke="#000000" cx="397.6211" cy="-612" rx="82.5854" ry="18"/>
<text text-anchor="middle" x="397.6211" y="-608.3" font-family="Times,serif" font-size="14.00" fill="#737373">devel/qt5&#45;buildtools</text>
</a>
</g>
</g>
<!-- math/cgal&#45;&gt;devel/qt5&#45;buildtools -->
<g id="edge20" class="edge">
<title>math/cgal&#45;&gt;devel/qt5&#45;buildtools</title>
<path fill="none" stroke="#009999" d="M230.5135,-521.5032C245.3193,-539.9568 271.0308,-568.5816 299.4798,-585 307.6587,-589.7202 316.6993,-593.6462 325.8855,-596.904"/>
<polygon fill="#009999" stroke="#009999" points="324.8882,-600.2604 335.4812,-600.0623 327.0768,-593.6113 324.8882,-600.2604"/>
</g>
<!-- devel/qt5&#45;qmake -->
<g id="node20" class="node">
<title>devel/qt5&#45;qmake</title>
<g id="a_node20"><a xlink:href="https://www.freshports.org/devel/qt5-qmake" xlink:title="devel/qt5&#45;qmake">
<ellipse fill="#e1e1e1" stroke="#000000" cx="397.6211" cy="-558" rx="70.6878" ry="18"/>
<text text-anchor="middle" x="397.6211" y="-554.3" font-family="Times,serif" font-size="14.00" fill="#737373">devel/qt5&#45;qmake</text>
</a>
</g>
</g>
<!-- math/cgal&#45;&gt;devel/qt5&#45;qmake -->
<g id="edge21" class="edge">
<title>math/cgal&#45;&gt;devel/qt5&#45;qmake</title>
<path fill="none" stroke="#009999" d="M252.3914,-515.9428C266.9123,-520.7799 283.9579,-526.317 299.4798,-531 312.1526,-534.8234 325.8118,-538.721 338.795,-542.3219"/>
<polygon fill="#009999" stroke="#009999" points="337.9937,-545.7315 348.564,-545.0117 339.8519,-538.9826 337.9937,-545.7315"/>
</g>
<!-- math/cgal&#45;&gt;devel/boost&#45;libs -->
<g id="edge22" class="edge">
<title>math/cgal&#45;&gt;devel/boost&#45;libs</title>
<path fill="none" stroke="#009999" d="M230.5608,-486.6825C241.2672,-471.7173 255.7881,-449.0757 263.4798,-427 283.6859,-369.0072 259.1483,-199.3122 299.4798,-153 306.182,-145.304 314.8546,-139.7062 324.2677,-135.6516"/>
<polygon fill="#009999" stroke="#009999" points="325.72,-138.8461 333.8819,-132.0909 323.2888,-132.2819 325.72,-138.8461"/>
</g>
<!-- math/cgal&#45;&gt;math/mpfr -->
<g id="edge23" class="edge">
<title>math/cgal&#45;&gt;math/mpfr</title>
<path fill="none" stroke="#009999" d="M221.6613,-485.8667C230.1482,-450.0571 249.3771,-367.6888 263.4798,-298 281.3072,-209.9057 238.8319,-165.3344 299.4798,-99 309.5557,-87.9794 323.6725,-81.2925 338.0649,-77.2789"/>
<polygon fill="#009999" stroke="#009999" points="339.1093,-80.6282 348.0266,-74.9071 337.4879,-73.8186 339.1093,-80.6282"/>
</g>
<!-- math/cgal&#45;&gt;math/gmp -->
<g id="edge24" class="edge">
<title>math/cgal&#45;&gt;math/gmp</title>
<path fill="none" stroke="#009999" d="M218.0671,-485.8947C221.538,-409.1419 238.7722,-111.5248 299.4798,-45 309.9841,-33.4891 324.8968,-26.7048 339.9345,-22.7565"/>
<polygon fill="#009999" stroke="#009999" points="340.7955,-26.1504 349.7893,-20.5502 339.2662,-19.3195 340.7955,-26.1504"/>
</g>
<!-- graphics/geomview -->
<g id="node24" class="node">
<title>graphics/geomview</title>
<g id="a_node24"><a xlink:href="https://www.freshports.org/graphics/geomview" xlink:title="graphics/geomview">
<ellipse fill="#e1e1e1" stroke="#000000" cx="397.6211" cy="-504" rx="79.0865" ry="18"/>
<text text-anchor="middle" x="397.6211" y="-500.3" font-family="Times,serif" font-size="14.00" fill="#737373">graphics/geomview</text>
</a>
</g>
</g>
<!-- math/cgal&#45;&gt;graphics/geomview -->
<g id="edge25" class="edge">
<title>math/cgal&#45;&gt;graphics/geomview</title>
<path fill="none" stroke="#009999" d="M263.7623,-504C277.3703,-504 292.7319,-504 308.0706,-504"/>
<polygon fill="#009999" stroke="#009999" points="308.1284,-507.5001 318.1284,-504 308.1284,-500.5001 308.1284,-507.5001"/>
</g>
<!-- graphics/libGLU -->
<g id="node25" class="node">
<title>graphics/libGLU</title>
<g id="a_node25"><a xlink:href="https://www.freshports.org/graphics/libGLU" xlink:title="graphics/libGLU">
<ellipse fill="#e1e1e1" stroke="#000000" cx="397.6211" cy="-450" rx="71.4873" ry="18"/>
<text text-anchor="middle" x="397.6211" y="-446.3" font-family="Times,serif" font-size="14.00" fill="#737373">graphics/libGLU</text>
</a>
</g>
</g>
<!-- math/cgal&#45;&gt;graphics/libGLU -->
<g id="edge26" class="edge">
<title>math/cgal&#45;&gt;graphics/libGLU</title>
<path fill="none" stroke="#009999" d="M252.3914,-492.0572C266.9123,-487.2201 283.9579,-481.683 299.4798,-477 312.0852,-473.1969 325.6665,-469.3205 338.5877,-465.7355"/>
<polygon fill="#009999" stroke="#009999" points="339.6014,-469.0868 348.313,-463.057 337.7426,-462.3381 339.6014,-469.0868"/>
</g>
<!-- devel/qt5&#45;core -->
<g id="node26" class="node">
<title>devel/qt5&#45;core</title>
<g id="a_node26"><a xlink:href="https://www.freshports.org/devel/qt5-core" xlink:title="devel/qt5&#45;core">
<ellipse fill="#e1e1e1" stroke="#000000" cx="397.6211" cy="-396" rx="62.2891" ry="18"/>
<text text-anchor="middle" x="397.6211" y="-392.3" font-family="Times,serif" font-size="14.00" fill="#737373">devel/qt5&#45;core</text>
</a>
</g>
</g>
<!-- math/cgal&#45;&gt;devel/qt5&#45;core -->
<g id="edge27" class="edge">
<title>math/cgal&#45;&gt;devel/qt5&#45;core</title>
<path fill="none" stroke="#009999" d="M230.5135,-486.4968C245.3193,-468.0432 271.0308,-439.4184 299.4798,-423 310.2283,-416.7969 322.4651,-411.9652 334.5648,-408.2194"/>
<polygon fill="#009999" stroke="#009999" points="335.567,-411.5731 344.2081,-405.4427 333.6301,-404.8464 335.567,-411.5731"/>
</g>
<!-- x11&#45;toolkits/qt5&#45;gui -->
<g id="node27" class="node">
<title>x11&#45;toolkits/qt5&#45;gui</title>
<g id="a_node27"><a xlink:href="https://www.freshports.org/x11-toolkits/qt5-gui" xlink:title="x11&#45;toolkits/qt5&#45;gui">
<ellipse fill="#e1e1e1" stroke="#000000" cx="397.6211" cy="-342" rx="81.7856" ry="18"/>
<text text-anchor="middle" x="397.6211" y="-338.3" font-family="Times,serif" font-size="14.00" fill="#737373">x11&#45;toolkits/qt5&#45;gui</text>
</a>
</g>
</g>
<!-- math/cgal&#45;&gt;x11&#45;toolkits/qt5&#45;gui -->
<g id="edge28" class="edge">
<title>math/cgal&#45;&gt;x11&#45;toolkits/qt5&#45;gui</title>
<path fill="none" stroke="#009999" d="M228.0305,-486.2328C249.9697,-449.8165 298.1281,-370.0198 299.4798,-369 306.2733,-363.8749 313.9838,-359.7226 322.0258,-356.3584"/>
<polygon fill="#009999" stroke="#009999" points="323.4581,-359.5591 331.5836,-352.7601 320.9917,-353.0079 323.4581,-359.5591"/>
</g>
<!-- graphics/qt5&#45;opengl -->
<g id="node28" class="node">
<title>graphics/qt5&#45;opengl</title>
<g id="a_node28"><a xlink:href="https://www.freshports.org/graphics/qt5-opengl" xlink:title="graphics/qt5&#45;opengl">
<ellipse fill="#e1e1e1" stroke="#000000" cx="397.6211" cy="-288" rx="81.7856" ry="18"/>
<text text-anchor="middle" x="397.6211" y="-284.3" font-family="Times,serif" font-size="14.00" fill="#737373">graphics/qt5&#45;opengl</text>
</a>
</g>
</g>
<!-- math/cgal&#45;&gt;graphics/qt5&#45;opengl -->
<g id="edge29" class="edge">
<title>math/cgal&#45;&gt;graphics/qt5&#45;opengl</title>
<path fill="none" stroke="#009999" d="M229.353,-486.5833C239.4573,-471.3731 253.767,-448.4352 263.4798,-427 285.0599,-379.3751 261.7303,-351.1774 299.4798,-315 305.1763,-309.5408 311.871,-305.1645 319.0425,-301.6596"/>
<polygon fill="#009999" stroke="#009999" points="320.532,-304.8291 328.3421,-297.67 317.7722,-298.3961 320.532,-304.8291"/>
</g>
<!-- graphics/qt5&#45;svg -->
<g id="node29" class="node">
<title>graphics/qt5&#45;svg</title>
<g id="a_node29"><a xlink:href="https://www.freshports.org/graphics/qt5-svg" xlink:title="graphics/qt5&#45;svg">
<ellipse fill="#e1e1e1" stroke="#000000" cx="397.6211" cy="-234" rx="69.5877" ry="18"/>
<text text-anchor="middle" x="397.6211" y="-230.3" font-family="Times,serif" font-size="14.00" fill="#737373">graphics/qt5&#45;svg</text>
</a>
</g>
</g>
<!-- math/cgal&#45;&gt;graphics/qt5&#45;svg -->
<g id="edge30" class="edge">
<title>math/cgal&#45;&gt;graphics/qt5&#45;svg</title>
<path fill="none" stroke="#009999" d="M230.0935,-486.5088C240.5149,-471.4375 254.8797,-448.7379 263.4798,-427 291.2523,-356.8014 247.5839,-315.8268 299.4798,-261 306.313,-253.7809 314.8815,-248.4307 324.093,-244.4767"/>
<polygon fill="#009999" stroke="#009999" points="325.3354,-247.7488 333.4782,-240.9705 322.8856,-241.1915 325.3354,-247.7488"/>
</g>
<!-- x11&#45;toolkits/qt5&#45;widgets -->
<g id="node30" class="node">
<title>x11&#45;toolkits/qt5&#45;widgets</title>
<g id="a_node30"><a xlink:href="https://www.freshports.org/x11-toolkits/qt5-widgets" xlink:title="x11&#45;toolkits/qt5&#45;widgets">
<ellipse fill="#e1e1e1" stroke="#000000" cx="397.6211" cy="-180" rx="98.2828" ry="18"/>
<text text-anchor="middle" x="397.6211" y="-176.3" font-family="Times,serif" font-size="14.00" fill="#737373">x11&#45;toolkits/qt5&#45;widgets</text>
</a>
</g>
</g>
<!-- math/cgal&#45;&gt;x11&#45;toolkits/qt5&#45;widgets -->
<g id="edge31" class="edge">
<title>math/cgal&#45;&gt;x11&#45;toolkits/qt5&#45;widgets</title>
<path fill="none" stroke="#009999" d="M230.3821,-486.6187C240.9795,-471.6145 255.4407,-448.9516 263.4798,-427 297.5513,-333.9644 233.2407,-280.6809 299.4798,-207 303.2456,-202.8111 307.5952,-199.2468 312.3247,-196.2164"/>
<polygon fill="#009999" stroke="#009999" points="314.1382,-199.2133 321.2042,-191.3188 310.7574,-193.0838 314.1382,-199.2133"/>
</g>
</g>
</svg>
