<?xml version="1.0" encoding="UTF-8" standalone="no"?>
<!DOCTYPE svg PUBLIC "-//W3C//DTD SVG 1.1//EN"
 "http://www.w3.org/Graphics/SVG/1.1/DTD/svg11.dtd">
<!-- Generated by graphviz version 2.38.0 (20140413.2041)
 -->
<!-- Title: inheritance4d9288f454 Pages: 1 -->
<svg width="461pt" height="218pt"
 viewBox="0.00 0.00 461.25 218.00" xmlns="http://www.w3.org/2000/svg" xmlns:xlink="http://www.w3.org/1999/xlink">
<g id="graph0" class="graph" transform="scale(1 1) rotate(0) translate(4 214)">
<title>inheritance4d9288f454</title>
<polygon fill="white" stroke="none" points="-4,4 -4,-214 457.247,-214 457.247,4 -4,4"/>
<!-- CMBMap -->
<g id="node1" class="node"><title>CMBMap</title>
<g id="a_node1"><a xlink:href="../../api/pysm.CMBMap.html#pysm.CMBMap" xlink:title="CMBMap" target="_top">
<polygon fill="none" stroke="black" stroke-width="0.5" points="238.305,-210 182.191,-210 182.191,-190 238.305,-190 238.305,-210"/>
<text text-anchor="middle" x="210.248" y="-197" font-family="Vera Sans, DejaVu Sans, Liberation Sans, Arial, Helvetica, sans" font-size="10.00">CMBMap</text>
</a>
</g>
</g>
<!-- Model -->
<g id="node2" class="node"><title>Model</title>
<g id="a_node2"><a xlink:href="../../api/pysm.Model.html#pysm.Model" xlink:title="This is the template object for PySM objects." target="_top">
<polygon fill="none" stroke="black" stroke-width="0.5" points="85.5445,-115 31.5445,-115 31.5445,-95 85.5445,-95 85.5445,-115"/>
<text text-anchor="middle" x="58.5445" y="-102" font-family="Vera Sans, DejaVu Sans, Liberation Sans, Arial, Helvetica, sans" font-size="10.00">Model</text>
</a>
</g>
</g>
<!-- Model&#45;&gt;CMBMap -->
<g id="edge1" class="edge"><title>Model&#45;&gt;CMBMap</title>
<path fill="none" stroke="black" stroke-width="0.5" d="M85.7369,-109.616C96.2785,-112.448 108.052,-116.94 117.089,-124 140.701,-142.446 129.545,-162.467 153.089,-181 159.988,-186.43 168.524,-190.351 176.84,-193.166"/>
<polygon fill="black" stroke="black" stroke-width="0.5" points="176.679,-194.949 181.973,-194.779 177.728,-191.61 176.679,-194.949"/>
</g>
<!-- ModifiedBlackBody -->
<g id="node4" class="node"><title>ModifiedBlackBody</title>
<g id="a_node4"><a xlink:href="../../api/pysm.ModifiedBlackBody.html#pysm.ModifiedBlackBody" xlink:title="This is a model for modified black body emission." target="_top">
<polygon fill="none" stroke="black" stroke-width="0.5" points="259.458,-172 161.038,-172 161.038,-152 259.458,-152 259.458,-172"/>
<text text-anchor="middle" x="210.248" y="-159" font-family="Vera Sans, DejaVu Sans, Liberation Sans, Arial, Helvetica, sans" font-size="10.00">ModifiedBlackBody</text>
</a>
</g>
</g>
<!-- Model&#45;&gt;ModifiedBlackBody -->
<g id="edge4" class="edge"><title>Model&#45;&gt;ModifiedBlackBody</title>
<path fill="none" stroke="black" stroke-width="0.5" d="M85.6657,-112.61C95.6358,-115.777 107.021,-119.716 117.089,-124 133.737,-131.083 136.468,-135.856 153.089,-143 159.042,-145.559 165.463,-148.008 171.762,-150.247"/>
<polygon fill="black" stroke="black" stroke-width="0.5" points="171.249,-151.921 176.546,-151.916 172.402,-148.616 171.249,-151.921"/>
</g>
<!-- InterpolatingComponent -->
<g id="node5" class="node"><title>InterpolatingComponent</title>
<g id="a_node5"><a xlink:href="../../api/pysm.InterpolatingComponent.html#pysm.InterpolatingComponent" xlink:title="InterpolatingComponent" target="_top">
<polygon fill="none" stroke="black" stroke-width="0.5" points="267.566,-134 152.93,-134 152.93,-114 267.566,-114 267.566,-134"/>
<text text-anchor="middle" x="210.248" y="-121" font-family="Vera Sans, DejaVu Sans, Liberation Sans, Arial, Helvetica, sans" font-size="10.00">InterpolatingComponent</text>
</a>
</g>
</g>
<!-- Model&#45;&gt;InterpolatingComponent -->
<g id="edge3" class="edge"><title>Model&#45;&gt;InterpolatingComponent</title>
<path fill="none" stroke="black" stroke-width="0.5" d="M85.6209,-108.31C102.76,-110.485 125.943,-113.427 147.602,-116.176"/>
<polygon fill="black" stroke="black" stroke-width="0.5" points="147.598,-117.939 152.778,-116.833 148.038,-114.467 147.598,-117.939"/>
</g>
<!-- PowerLaw -->
<g id="node7" class="node"><title>PowerLaw</title>
<g id="a_node7"><a xlink:href="../../api/pysm.PowerLaw.html#pysm.PowerLaw" xlink:title="This is a model for a simple power law synchrotron model." target="_top">
<polygon fill="none" stroke="black" stroke-width="0.5" points="240.062,-96 180.434,-96 180.434,-76 240.062,-76 240.062,-96"/>
<text text-anchor="middle" x="210.248" y="-83" font-family="Vera Sans, DejaVu Sans, Liberation Sans, Arial, Helvetica, sans" font-size="10.00">PowerLaw</text>
</a>
</g>
</g>
<!-- Model&#45;&gt;PowerLaw -->
<g id="edge5" class="edge"><title>Model&#45;&gt;PowerLaw</title>
<path fill="none" stroke="black" stroke-width="0.5" d="M85.6209,-101.69C110.438,-98.5407 147.926,-93.7829 175.113,-90.3324"/>
<polygon fill="black" stroke="black" stroke-width="0.5" points="175.666,-92.0263 180.406,-89.6606 175.225,-88.5541 175.666,-92.0263"/>
</g>
<!-- Sky -->
<g id="node8" class="node"><title>Sky</title>
<g id="a_node8"><a xlink:href="../../api/pysm.Sky.html#pysm.Sky" xlink:title="This class is a convenience object that wraps together a group of" target="_top">
<polygon fill="none" stroke="black" stroke-width="0.5" points="237.248,-58 183.248,-58 183.248,-38 237.248,-38 237.248,-58"/>
<text text-anchor="middle" x="210.248" y="-45" font-family="Vera Sans, DejaVu Sans, Liberation Sans, Arial, Helvetica, sans" font-size="10.00">Sky</text>
</a>
</g>
</g>
<!-- Model&#45;&gt;Sky -->
<g id="edge6" class="edge"><title>Model&#45;&gt;Sky</title>
<path fill="none" stroke="black" stroke-width="0.5" d="M83.2292,-94.9226C102.049,-87.0261 129.101,-75.9209 153.089,-67 161.158,-63.9992 169.949,-60.931 178.129,-58.1599"/>
<polygon fill="black" stroke="black" stroke-width="0.5" points="178.951,-59.7298 183.132,-56.4761 177.835,-56.4126 178.951,-59.7298"/>
</g>
<!-- SpDust -->
<g id="node9" class="node"><title>SpDust</title>
<g id="a_node9"><a xlink:href="../../api/pysm.SpDust.html#pysm.SpDust" xlink:title="Implementation of the SpDust2 code of (Ali&#45;Haimoud et al 2012)" target="_top">
<polygon fill="none" stroke="black" stroke-width="0.5" points="237.248,-20 183.248,-20 183.248,-0 237.248,-0 237.248,-20"/>
<text text-anchor="middle" x="210.248" y="-7" font-family="Vera Sans, DejaVu Sans, Liberation Sans, Arial, Helvetica, sans" font-size="10.00">SpDust</text>
</a>
</g>
</g>
<!-- Model&#45;&gt;SpDust -->
<g id="edge7" class="edge"><title>Model&#45;&gt;SpDust</title>
<path fill="none" stroke="black" stroke-width="0.5" d="M69.5815,-94.7609C85.8023,-78.7255 119.38,-47.6024 153.089,-29 160.776,-24.7582 169.575,-21.2337 177.891,-18.4195"/>
<polygon fill="black" stroke="black" stroke-width="0.5" points="178.78,-19.9706 182.993,-16.7589 177.697,-16.6424 178.78,-19.9706"/>
</g>
<!-- DecorrelatedModifiedBlackBody -->
<g id="node3" class="node"><title>DecorrelatedModifiedBlackBody</title>
<g id="a_node3"><a xlink:href="../../api/pysm.DecorrelatedModifiedBlackBody.html#pysm.DecorrelatedModifiedBlackBody" xlink:title="DecorrelatedModifiedBlackBody" target="_top">
<polygon fill="none" stroke="black" stroke-width="0.5" points="453.167,-172 303.487,-172 303.487,-152 453.167,-152 453.167,-172"/>
<text text-anchor="middle" x="378.327" y="-159" font-family="Vera Sans, DejaVu Sans, Liberation Sans, Arial, Helvetica, sans" font-size="10.00">DecorrelatedModifiedBlackBody</text>
</a>
</g>
</g>
<!-- ModifiedBlackBody&#45;&gt;DecorrelatedModifiedBlackBody -->
<g id="edge2" class="edge"><title>ModifiedBlackBody&#45;&gt;DecorrelatedModifiedBlackBody</title>
<path fill="none" stroke="black" stroke-width="0.5" d="M259.731,-162C271.818,-162 285.094,-162 298.237,-162"/>
<polygon fill="black" stroke="black" stroke-width="0.5" points="298.461,-163.75 303.461,-162 298.461,-160.25 298.461,-163.75"/>
</g>
<!-- MapDistribution -->
<g id="node6" class="node"><title>MapDistribution</title>
<g id="a_node6"><a xlink:href="../../api/pysm.MapDistribution.html#pysm.MapDistribution" xlink:title="MapDistribution" target="_top">
<polygon fill="none" stroke="black" stroke-width="0.5" points="99.7052,-153 17.3838,-153 17.3838,-133 99.7052,-133 99.7052,-153"/>
<text text-anchor="middle" x="58.5445" y="-140" font-family="Vera Sans, DejaVu Sans, Liberation Sans, Arial, Helvetica, sans" font-size="10.00">MapDistribution</text>
</a>
</g>
</g>
<!-- SpDustPol -->
<g id="node10" class="node"><title>SpDustPol</title>
<g id="a_node10"><a xlink:href="../../api/pysm.SpDustPol.html#pysm.SpDustPol" xlink:title="SpDust2 model with Polarized emission" target="_top">
<polygon fill="none" stroke="black" stroke-width="0.5" points="407.611,-20 349.043,-20 349.043,-0 407.611,-0 407.611,-20"/>
<text text-anchor="middle" x="378.327" y="-7" font-family="Vera Sans, DejaVu Sans, Liberation Sans, Arial, Helvetica, sans" font-size="10.00">SpDustPol</text>
</a>
</g>
</g>
<!-- SpDust&#45;&gt;SpDustPol -->
<g id="edge8" class="edge"><title>SpDust&#45;&gt;SpDustPol</title>
<path fill="none" stroke="black" stroke-width="0.5" d="M237.564,-10C266.269,-10 312.298,-10 343.626,-10"/>
<polygon fill="black" stroke="black" stroke-width="0.5" points="343.91,-11.7501 348.91,-10 343.91,-8.25009 343.91,-11.7501"/>
</g>
<!-- UnsupportedPythonError -->
<g id="node11" class="node"><title>UnsupportedPythonError</title>
<g id="a_node11"><a xlink:href="../../api/pysm.UnsupportedPythonError.html#pysm.UnsupportedPythonError" xlink:title="UnsupportedPythonError" target="_top">
<polygon fill="none" stroke="black" stroke-width="0.5" points="117.134,-191 -0.0445339,-191 -0.0445339,-171 117.134,-171 117.134,-191"/>
<text text-anchor="middle" x="58.5445" y="-178" font-family="Vera Sans, DejaVu Sans, Liberation Sans, Arial, Helvetica, sans" font-size="10.00">UnsupportedPythonError</text>
</a>
</g>
</g>
</g>
</svg>
