<?xml version="1.0" encoding="UTF-8" standalone="no"?>
<!DOCTYPE svg PUBLIC "-//W3C//DTD SVG 1.1//EN"
 "http://www.w3.org/Graphics/SVG/1.1/DTD/svg11.dtd">
<!-- Generated by graphviz version 2.38.0 (20140413.2041)
 -->
<!-- Title: inheritanceabe5fa8e9c Pages: 1 -->
<svg width="461pt" height="218pt"
 viewBox="0.00 0.00 461.25 218.00" xmlns="http://www.w3.org/2000/svg" xmlns:xlink="http://www.w3.org/1999/xlink">
<g id="graph0" class="graph" transform="scale(1 1) rotate(0) translate(4 214)">
<title>inheritanceabe5fa8e9c</title>
<polygon fill="white" stroke="none" points="-4,4 -4,-214 457.247,-214 457.247,4 -4,4"/>
<!-- CMBLensed -->
<g id="node1" class="node"><title>CMBLensed</title>
<g id="a_node1"><a xlink:href="../api/pysm.CMBLensed.html#pysm.CMBLensed" xlink:title="CMBLensed" target="_top">
<polygon fill="none" stroke="black" stroke-width="0.5" points="411.93,-210 344.724,-210 344.724,-190 411.93,-190 411.93,-210"/>
<text text-anchor="middle" x="378.327" y="-197" font-family="Vera Sans, DejaVu Sans, Liberation Sans, Arial, Helvetica, sans" font-size="10.00">CMBLensed</text>
</a>
</g>
</g>
<!-- CMBMap -->
<g id="node2" class="node"><title>CMBMap</title>
<g id="a_node2"><a xlink:href="../api/pysm.CMBMap.html#pysm.CMBMap" xlink:title="CMBMap" target="_top">
<polygon fill="none" stroke="black" stroke-width="0.5" points="238.305,-210 182.191,-210 182.191,-190 238.305,-190 238.305,-210"/>
<text text-anchor="middle" x="210.248" y="-197" font-family="Vera Sans, DejaVu Sans, Liberation Sans, Arial, Helvetica, sans" font-size="10.00">CMBMap</text>
</a>
</g>
</g>
<!-- CMBMap&#45;&gt;CMBLensed -->
<g id="edge1" class="edge"><title>CMBMap&#45;&gt;CMBLensed</title>
<path fill="none" stroke="black" stroke-width="0.5" d="M238.673,-200C266.194,-200 308.799,-200 339.519,-200"/>
<polygon fill="black" stroke="black" stroke-width="0.5" points="339.726,-201.75 344.726,-200 339.726,-198.25 339.726,-201.75"/>
</g>
<!-- Model -->
<g id="node3" class="node"><title>Model</title>
<g id="a_node3"><a xlink:href="../api/pysm.Model.html#pysm.Model" xlink:title="This is the template object for PySM objects." target="_top">
<polygon fill="none" stroke="black" stroke-width="0.5" points="85.5445,-115 31.5445,-115 31.5445,-95 85.5445,-95 85.5445,-115"/>
<text text-anchor="middle" x="58.5445" y="-102" font-family="Vera Sans, DejaVu Sans, Liberation Sans, Arial, Helvetica, sans" font-size="10.00">Model</text>
</a>
</g>
</g>
<!-- Model&#45;&gt;CMBMap -->
<g id="edge2" class="edge"><title>Model&#45;&gt;CMBMap</title>
<path fill="none" stroke="black" stroke-width="0.5" d="M85.7369,-109.616C96.2785,-112.448 108.052,-116.94 117.089,-124 140.701,-142.446 129.545,-162.467 153.089,-181 159.988,-186.43 168.524,-190.351 176.84,-193.166"/>
<polygon fill="black" stroke="black" stroke-width="0.5" points="176.679,-194.949 181.973,-194.779 177.728,-191.61 176.679,-194.949"/>
</g>
<!-- PowerLaw -->
<g id="node5" class="node"><title>PowerLaw</title>
<g id="a_node5"><a xlink:href="../api/pysm.PowerLaw.html#pysm.PowerLaw" xlink:title="This is a model for a simple power law synchrotron model." target="_top">
<polygon fill="none" stroke="black" stroke-width="0.5" points="240.062,-172 180.434,-172 180.434,-152 240.062,-152 240.062,-172"/>
<text text-anchor="middle" x="210.248" y="-159" font-family="Vera Sans, DejaVu Sans, Liberation Sans, Arial, Helvetica, sans" font-size="10.00">PowerLaw</text>
</a>
</g>
</g>
<!-- Model&#45;&gt;PowerLaw -->
<g id="edge7" class="edge"><title>Model&#45;&gt;PowerLaw</title>
<path fill="none" stroke="black" stroke-width="0.5" d="M85.6657,-112.61C95.6358,-115.777 107.021,-119.716 117.089,-124 133.737,-131.083 136.468,-135.856 153.089,-143 160.158,-146.038 167.886,-148.922 175.287,-151.483"/>
<polygon fill="black" stroke="black" stroke-width="0.5" points="175.049,-153.25 180.346,-153.202 176.175,-149.936 175.049,-153.25"/>
</g>
<!-- ModifiedBlackBody -->
<g id="node7" class="node"><title>ModifiedBlackBody</title>
<g id="a_node7"><a xlink:href="../api/pysm.ModifiedBlackBody.html#pysm.ModifiedBlackBody" xlink:title="This is a model for modified black body emission." target="_top">
<polygon fill="none" stroke="black" stroke-width="0.5" points="259.458,-134 161.038,-134 161.038,-114 259.458,-114 259.458,-134"/>
<text text-anchor="middle" x="210.248" y="-121" font-family="Vera Sans, DejaVu Sans, Liberation Sans, Arial, Helvetica, sans" font-size="10.00">ModifiedBlackBody</text>
</a>
</g>
</g>
<!-- Model&#45;&gt;ModifiedBlackBody -->
<g id="edge6" class="edge"><title>Model&#45;&gt;ModifiedBlackBody</title>
<path fill="none" stroke="black" stroke-width="0.5" d="M85.6209,-108.31C105.017,-110.771 132.151,-114.215 156.06,-117.249"/>
<polygon fill="black" stroke="black" stroke-width="0.5" points="155.928,-118.997 161.108,-117.89 156.369,-115.525 155.928,-118.997"/>
</g>
<!-- InterpolatingComponent -->
<g id="node8" class="node"><title>InterpolatingComponent</title>
<g id="a_node8"><a xlink:href="../api/pysm.InterpolatingComponent.html#pysm.InterpolatingComponent" xlink:title="InterpolatingComponent" target="_top">
<polygon fill="none" stroke="black" stroke-width="0.5" points="267.566,-96 152.93,-96 152.93,-76 267.566,-76 267.566,-96"/>
<text text-anchor="middle" x="210.248" y="-83" font-family="Vera Sans, DejaVu Sans, Liberation Sans, Arial, Helvetica, sans" font-size="10.00">InterpolatingComponent</text>
</a>
</g>
</g>
<!-- Model&#45;&gt;InterpolatingComponent -->
<g id="edge5" class="edge"><title>Model&#45;&gt;InterpolatingComponent</title>
<path fill="none" stroke="black" stroke-width="0.5" d="M85.6209,-101.69C102.76,-99.5152 125.943,-96.5729 147.602,-93.8239"/>
<polygon fill="black" stroke="black" stroke-width="0.5" points="148.038,-95.5327 152.778,-93.167 147.598,-92.0606 148.038,-95.5327"/>
</g>
<!-- Sky -->
<g id="node10" class="node"><title>Sky</title>
<g id="a_node10"><a xlink:href="../api/pysm.Sky.html#pysm.Sky" xlink:title="This class is a convenience object that wraps together a group of" target="_top">
<polygon fill="none" stroke="black" stroke-width="0.5" points="237.248,-58 183.248,-58 183.248,-38 237.248,-38 237.248,-58"/>
<text text-anchor="middle" x="210.248" y="-45" font-family="Vera Sans, DejaVu Sans, Liberation Sans, Arial, Helvetica, sans" font-size="10.00">Sky</text>
</a>
</g>
</g>
<!-- Model&#45;&gt;Sky -->
<g id="edge8" class="edge"><title>Model&#45;&gt;Sky</title>
<path fill="none" stroke="black" stroke-width="0.5" d="M83.2292,-94.9226C102.049,-87.0261 129.101,-75.9209 153.089,-67 161.158,-63.9992 169.949,-60.931 178.129,-58.1599"/>
<polygon fill="black" stroke="black" stroke-width="0.5" points="178.951,-59.7298 183.132,-56.4761 177.835,-56.4126 178.951,-59.7298"/>
</g>
<!-- SpDust -->
<g id="node11" class="node"><title>SpDust</title>
<g id="a_node11"><a xlink:href="../api/pysm.SpDust.html#pysm.SpDust" xlink:title="Implementation of the SpDust2 code of (Ali&#45;Haimoud et al 2012)" target="_top">
<polygon fill="none" stroke="black" stroke-width="0.5" points="237.248,-20 183.248,-20 183.248,-0 237.248,-0 237.248,-20"/>
<text text-anchor="middle" x="210.248" y="-7" font-family="Vera Sans, DejaVu Sans, Liberation Sans, Arial, Helvetica, sans" font-size="10.00">SpDust</text>
</a>
</g>
</g>
<!-- Model&#45;&gt;SpDust -->
<g id="edge9" class="edge"><title>Model&#45;&gt;SpDust</title>
<path fill="none" stroke="black" stroke-width="0.5" d="M69.5815,-94.7609C85.8023,-78.7255 119.38,-47.6024 153.089,-29 160.776,-24.7582 169.575,-21.2337 177.891,-18.4195"/>
<polygon fill="black" stroke="black" stroke-width="0.5" points="178.78,-19.9706 182.993,-16.7589 177.697,-16.6424 178.78,-19.9706"/>
</g>
<!-- CurvedPowerLaw -->
<g id="node4" class="node"><title>CurvedPowerLaw</title>
<g id="a_node4"><a xlink:href="../api/pysm.CurvedPowerLaw.html#pysm.CurvedPowerLaw" xlink:title="CurvedPowerLaw" target="_top">
<polygon fill="none" stroke="black" stroke-width="0.5" points="422.577,-172 334.077,-172 334.077,-152 422.577,-152 422.577,-172"/>
<text text-anchor="middle" x="378.327" y="-159" font-family="Vera Sans, DejaVu Sans, Liberation Sans, Arial, Helvetica, sans" font-size="10.00">CurvedPowerLaw</text>
</a>
</g>
</g>
<!-- PowerLaw&#45;&gt;CurvedPowerLaw -->
<g id="edge3" class="edge"><title>PowerLaw&#45;&gt;CurvedPowerLaw</title>
<path fill="none" stroke="black" stroke-width="0.5" d="M240.177,-162C264.499,-162 299.791,-162 328.483,-162"/>
<polygon fill="black" stroke="black" stroke-width="0.5" points="328.76,-163.75 333.76,-162 328.759,-160.25 328.76,-163.75"/>
</g>
<!-- DecorrelatedModifiedBlackBody -->
<g id="node6" class="node"><title>DecorrelatedModifiedBlackBody</title>
<g id="a_node6"><a xlink:href="../api/pysm.DecorrelatedModifiedBlackBody.html#pysm.DecorrelatedModifiedBlackBody" xlink:title="DecorrelatedModifiedBlackBody" target="_top">
<polygon fill="none" stroke="black" stroke-width="0.5" points="453.167,-134 303.487,-134 303.487,-114 453.167,-114 453.167,-134"/>
<text text-anchor="middle" x="378.327" y="-121" font-family="Vera Sans, DejaVu Sans, Liberation Sans, Arial, Helvetica, sans" font-size="10.00">DecorrelatedModifiedBlackBody</text>
</a>
</g>
</g>
<!-- ModifiedBlackBody&#45;&gt;DecorrelatedModifiedBlackBody -->
<g id="edge4" class="edge"><title>ModifiedBlackBody&#45;&gt;DecorrelatedModifiedBlackBody</title>
<path fill="none" stroke="black" stroke-width="0.5" d="M259.731,-124C271.818,-124 285.094,-124 298.237,-124"/>
<polygon fill="black" stroke="black" stroke-width="0.5" points="298.461,-125.75 303.461,-124 298.461,-122.25 298.461,-125.75"/>
</g>
<!-- MapDistribution -->
<g id="node9" class="node"><title>MapDistribution</title>
<g id="a_node9"><a xlink:href="../api/pysm.MapDistribution.html#pysm.MapDistribution" xlink:title="MapDistribution" target="_top">
<polygon fill="none" stroke="black" stroke-width="0.5" points="99.7052,-153 17.3838,-153 17.3838,-133 99.7052,-133 99.7052,-153"/>
<text text-anchor="middle" x="58.5445" y="-140" font-family="Vera Sans, DejaVu Sans, Liberation Sans, Arial, Helvetica, sans" font-size="10.00">MapDistribution</text>
</a>
</g>
</g>
<!-- SpDustPol -->
<g id="node12" class="node"><title>SpDustPol</title>
<g id="a_node12"><a xlink:href="../api/pysm.SpDustPol.html#pysm.SpDustPol" xlink:title="SpDust2 model with Polarized emission" target="_top">
<polygon fill="none" stroke="black" stroke-width="0.5" points="407.611,-20 349.043,-20 349.043,-0 407.611,-0 407.611,-20"/>
<text text-anchor="middle" x="378.327" y="-7" font-family="Vera Sans, DejaVu Sans, Liberation Sans, Arial, Helvetica, sans" font-size="10.00">SpDustPol</text>
</a>
</g>
</g>
<!-- SpDust&#45;&gt;SpDustPol -->
<g id="edge10" class="edge"><title>SpDust&#45;&gt;SpDustPol</title>
<path fill="none" stroke="black" stroke-width="0.5" d="M237.564,-10C266.269,-10 312.298,-10 343.626,-10"/>
<polygon fill="black" stroke="black" stroke-width="0.5" points="343.91,-11.7501 348.91,-10 343.91,-8.25009 343.91,-11.7501"/>
</g>
<!-- UnsupportedPythonError -->
<g id="node13" class="node"><title>UnsupportedPythonError</title>
<g id="a_node13"><a xlink:href="../api/pysm.UnsupportedPythonError.html#pysm.UnsupportedPythonError" xlink:title="UnsupportedPythonError" target="_top">
<polygon fill="none" stroke="black" stroke-width="0.5" points="117.134,-191 -0.0445339,-191 -0.0445339,-171 117.134,-171 117.134,-191"/>
<text text-anchor="middle" x="58.5445" y="-178" font-family="Vera Sans, DejaVu Sans, Liberation Sans, Arial, Helvetica, sans" font-size="10.00">UnsupportedPythonError</text>
</a>
</g>
</g>
</g>
</svg>
